<?xml version="1.0" encoding="UTF-8" standalone="no"?><!-- Generator: Gravit.io --><svg xmlns="http://www.w3.org/2000/svg" xmlns:xlink="http://www.w3.org/1999/xlink" style="isolation:isolate" viewBox="0 0 40.005 40" width="40.005pt" height="40pt"><defs><clipPath id="_clipPath_P8AAwFNXGkPMp50MPFrJQsZjl49drZHo"><rect width="40.005" height="40"/></clipPath></defs><g clip-path="url(#_clipPath_P8AAwFNXGkPMp50MPFrJQsZjl49drZHo)"><rect width="40.005" height="40" style="fill:rgb(0,0,0)" fill-opacity="0"/><g><path d=" M 19.648 0.017 C 20.093 -0.028 20.623 -0.002 20.948 0.351 C 21.6 1.061 21.482 2.373 20.505 2.735 C 20.371 2.785 20.229 2.809 20.087 2.819 C 19.937 2.83 19.814 2.824 19.66 2.811 C 18.483 2.717 18.138 0.995 19.022 0.329 L 19.022 0.329 L 19.648 0.017 L 19.648 0.017 L 19.648 0.017 L 19.648 0.017 L 19.648 0.017 Z  M 26.622 1.447 C 27.047 1.387 27.547 1.371 27.918 1.626 L 27.918 1.626 L 29.17 2.207 Q 32.304 3.834 34.601 6.297 Q 38.05 9.845 39.474 15.417 Q 40.216 18.095 39.921 21.81 Q 39.587 25.633 38.021 28.225 Q 37.626 28.59 36.725 28.448 Q 36.281 28.31 36.032 27.979 Q 35.622 27.629 35.719 26.772 Q 37.274 23.722 37.149 18.993 Q 36.255 10.879 31.181 6.946 Q 28.923 5.046 26.018 3.794 Q 25.531 3.454 25.616 2.542 Q 25.783 1.995 26.175 1.671 L 26.622 1.447 L 26.622 1.447 L 26.622 1.447 L 26.622 1.447 L 26.622 1.447 Z  M 18.485 4.934 Q 20.413 4.593 21.101 5.493 Q 21.466 5.888 21.324 6.789 L 20.989 7.303 L 20.922 7.326 L 20.899 7.393 Q 20.418 7.917 19.29 7.795 Q 18.37 7.725 17.748 7.951 Q 14.263 8.647 12.07 10.634 L 12.048 10.701 L 10.729 11.975 Q 8.684 14.199 7.958 17.742 Q 7.757 18.39 7.824 19.306 Q 7.928 20.662 7.175 21.161 Q 6.81 21.512 5.968 21.385 Q 5.466 21.217 5.186 20.826 Q 4.881 20.55 4.963 19.887 L 4.963 18.457 C 5.444 15.148 6.686 11.887 9.142 9.538 L 9.142 9.538 L 9.209 9.516 L 9.232 9.449 L 9.299 9.427 L 9.321 9.36 L 9.388 9.337 L 9.5 9.181 L 9.567 9.158 L 9.589 9.091 L 9.656 9.069 L 9.679 9.002 C 12.029 6.632 15.234 5.419 18.485 4.934 L 18.485 4.934 L 18.485 4.934 L 18.485 4.934 L 18.485 4.934 Z  M 2.392 11.55 Q 3.645 11.393 4.024 12.109 Q 4.333 12.47 4.247 13.226 Q 2.618 16.469 2.906 21.631 Q 4.024 29.208 8.874 33.053 Q 10.267 34.252 11.981 35.131 Q 12.484 35.478 13.143 35.668 Q 13.698 35.851 14.037 36.249 Q 14.432 36.569 14.35 37.367 Q 14.249 37.868 13.926 38.149 L 13.859 38.171 L 13.836 38.238 Q 13.484 38.669 12.585 38.551 Q 8.151 36.726 5.186 33.433 L 4.538 32.606 L 4.471 32.583 Q 2.737 30.495 1.61 27.8 Q -0.27 24.136 0.045 18.278 Q 0.376 14.474 1.9 11.863 L 2.392 11.55 L 2.392 11.55 L 2.392 11.55 Z  M 33.417 18.524 Q 34.509 18.482 34.869 19.172 Q 35.257 19.723 35.093 20.826 Q 34.314 27.602 30.243 31.086 L 29.594 31.555 L 29.572 31.622 Q 26.151 34.839 19.737 35.064 Q 19.178 34.886 18.865 34.461 Q 18.49 34.098 18.642 33.209 Q 18.78 32.766 19.111 32.516 Q 19.491 32.091 20.408 32.203 Q 21.625 32.258 22.486 31.957 Q 26.82 30.949 29.237 28.023 Q 31.257 25.886 31.986 22.458 Q 32.283 21.615 32.232 20.424 Q 32.124 19.153 32.88 18.747 L 33.417 18.524 L 33.417 18.524 Z  M 19.737 37.121 Q 20.846 37.04 21.19 37.724 Q 21.518 38.089 21.414 38.886 L 21.078 39.49 L 21.011 39.512 L 20.989 39.579 C 20.525 40.248 19.398 40.05 18.955 39.468 L 18.955 39.468 L 18.933 39.401 L 18.865 39.378 C 18.397 38.836 18.561 37.848 19.111 37.434 L 19.111 37.434 L 19.737 37.121 Z " fill-rule="evenodd" fill="rgb(245,157,0)"/><path d=" M 15.115 27.394 L 15.115 27.394 Q 14.905 27.394 14.758 27.247 L 14.758 27.247 L 14.758 27.247 Q 14.611 27.1 14.611 26.89 L 14.611 26.89 L 14.611 25.798 L 14.611 25.798 Q 14.611 25.21 15.136 24.811 L 15.136 24.811 L 18.412 21.556 L 18.412 21.556 Q 19.903 20.38 20.711 19.635 L 20.711 19.635 L 20.711 19.635 Q 21.52 18.889 21.919 18.259 L 21.919 18.259 L 21.919 18.259 Q 22.318 17.629 22.318 17.02 L 22.318 17.02 L 22.318 17.02 Q 22.318 16.033 21.793 15.466 L 21.793 15.466 L 21.793 15.466 Q 21.268 14.899 20.197 14.899 L 20.197 14.899 L 20.197 14.899 Q 19.147 14.899 18.548 15.519 L 18.548 15.519 L 18.548 15.519 Q 17.95 16.138 17.803 17.125 L 17.803 17.125 L 17.803 17.125 Q 17.74 17.377 17.561 17.493 L 17.561 17.493 L 17.561 17.493 Q 17.383 17.608 17.173 17.608 L 17.173 17.608 L 15.283 17.608 L 15.283 17.608 Q 15.094 17.608 14.968 17.482 L 14.968 17.482 L 14.968 17.482 Q 14.842 17.356 14.842 17.167 L 14.842 17.167 L 14.842 17.167 Q 14.884 15.928 15.524 14.847 L 15.524 14.847 L 15.524 14.847 Q 16.165 13.765 17.362 13.104 L 17.362 13.104 L 17.362 13.104 Q 18.559 12.442 20.176 12.442 L 20.176 12.442 L 20.176 12.442 Q 21.856 12.442 23.032 13.02 L 23.032 13.02 L 23.032 13.02 Q 24.208 13.597 24.796 14.605 L 24.796 14.605 L 24.796 14.605 Q 25.384 15.613 25.384 16.894 L 25.384 16.894 L 25.384 16.894 Q 25.384 18.301 24.596 19.446 L 24.596 19.446 L 24.596 19.446 Q 23.809 20.59 22.15 21.892 L 22.15 21.892 L 19.231 24.853 L 25.174 24.853 L 25.174 24.853 Q 25.405 24.853 25.552 25 L 25.552 25 L 25.552 25 Q 25.699 25.147 25.699 25.378 L 25.699 25.378 L 25.699 26.89 L 25.699 26.89 Q 25.699 27.121 25.552 27.258 L 25.552 27.258 L 25.552 27.258 Q 25.405 27.394 25.174 27.394 L 25.174 27.394 L 15.115 27.394 Z " fill="rgb(0,0,0)"/></g></g></svg>