<svg xmlns="http://www.w3.org/2000/svg" xmlns:xlink="http://www.w3.org/1999/xlink" preserveAspectRatio="xMidYMid meet" viewBox="16.174 45.301 231.857 231.857" width="227.86" height="227.86" xmlns:v="https://vecta.io/nano"><style><![CDATA[.B{fill-opacity:0}.C{stroke-width:.05}]]></style><defs><path d="M131.1 274.16c-62.92 0-113.93-51-113.93-113.93S68.18 46.3 131.1 46.3s113.93 51 113.93 113.93-51 113.93-113.93 113.93z" id="A"/><path d="M116.74 96.44l42.17 42.17 53.8-54.3-10.17-10.17-13.33-10.18-11.64-6.8-8-3.88-7.76-1.93-45.08 45.07z" id="B"/><path d="M196.56 223.78c-.63-1.6-.96-3.36-1.9-4.78l-2.74-2.6-4.62-3.08-5.66-2.23-8.05-2.23-6.7-1.2-8.9-.68-5.48.34-6.7 2.4-7.54 2.74-5.82 1.03-9.26.17-7.02-.86-7.37-1.2-7.2-1.03-6.34-.5-7.54-.86-7.37.35-.68-2.06-1.03-4.63.5-3.42.86-1.2 5.14-3.26 4.8-4.46 2.23-3.25.17-4.46-.34-4.28-.7-3.1-1.03-2.74v-2.74l1.9-1.88 3.08-1.2 3.1-1.72 2.4-2.4 2.05-3.25 1.03-3.43 1.2-2.23-.34-1.88-2.4-2.23h-2.23l-1.7 1.03-1.37 2.9-1.2 3.26-1.37 2.22-3.26 1.55-3.77 1.54-2.57 2.74-1.7 3.43-.18 3.6 1.03 4.28.86 4.3.68 3.25-.68 1.9-3.1 2.4-2.57 2.05-2.9 2.06-2.06 1.7-1.7 3.1-1.03 4.62.34 4.97.7 2.74.5 2.57-3.94 1.55-3.94 3.08-2.06 3.1-1.02 4.28 1.2 4.63 3.94 4.45 6 5.5 5.82 3.25 7.37 2.74 7.03 1.55 11.14 1.2 12 .68 13.88 1.2 12.34-.34 12-1.03 9.42-1.7 8.74-2.4 9.08-3.94 6.86-3.95 4.97-4.62 2.4-3.77.36-3.52" id="C"/><path d="M162.18 237.67l4.6-.85 3.5-.97 4.55-1.88 3.03-1.63 2.3-1.4 1.88-1.4 2.12-1.88 1.57-2.18 1.27-2.6.5-2.12.06-1.46-.06-.6.9 1.2.66 1.63.25 1.34-.18 1.57-.3 1.2-.6 1.22-.9 1.4-.97 1.15-1.76 1.33-1.82 1.46-1.93 1.27-2.55 1.64-1.57.9-1.76.8-1.94.6-1.94.66-1.82.2-2.06.12-2.06-.18-1.33-.13-1.64-.42z" id="D"/><path d="M109.35 143.94l13.57-20.6-10.66-10.3 7.27-7.27 30.17 30.05-7.27 7.27-10.66-10.54-19.75 13.7-2.67-2.3z" id="E"/><path d="M117 96.2l42.65 42.65 55.98-56.83c-3.93-5.23-9.3-9.5-15.14-13.45-1.93-2.12-6.2-4.6-10.3-7.03-3.25-3.75-7.63-5.93-13.94-7.75-1.58-1.94-7.4-2.62-13.45-4.24L117 96.2z" id="F"/></defs><use xlink:href="#A" fill="#c09328"/><use xlink:href="#A" stroke="#c09328" stroke-width=".4" class="B"/><use xlink:href="#B" class="B"/><use xlink:href="#B" stroke="#000" stroke-opacity="0" class="B C"/><use xlink:href="#C" fill="#fff"/><use xlink:href="#C" stroke="#fff" class="B C"/><use xlink:href="#D" fill="#c09328"/><use xlink:href="#D" stroke="#c09328" class="B C"/><use xlink:href="#E" fill="#fefefe"/><use xlink:href="#E" stroke="#fefefe" class="B C"/><use xlink:href="#F" fill="#fff"/><use xlink:href="#F" stroke="#fff" class="B C"/></svg>