<svg xmlns="http://www.w3.org/2000/svg" xmlns:xlink="http://www.w3.org/1999/xlink" preserveAspectRatio="xMidYMid meet" viewBox="23.064 47.539 217.577 217.577" width="213.08" height="213.08" xmlns:v="https://vecta.io/nano"><style><![CDATA[.B{fill-opacity:0}.C{stroke-width:.05}.D{fill:#02a75b}.E{stroke:#02a75b}.F{stroke:#fff}.G{stroke-opacity:.94}]]></style><defs><path d="M131.1 262.12c-58.84 0-106.54-47.7-106.54-106.54S72.26 49.04 131.1 49.04s106.54 47.7 106.54 106.54-47.7 106.54-106.54 106.54z" id="A"/><path d="M58.26 207.5l4.6 3.25 4.68 2.1 5.77 1.74 4.88 1.22 7.67 1.22 5.05.74 4.64.1 5.82-.32 9.06-1.57 7.32-1.22 5.97-1.48 10.67-2.68 6.02-1.77 8.67-2.96 6.92-2.1c2.23-.75 4.2-1.12 6.2-1.53 2.14-.5 4.45-.7 6.82-.78 3.37-.05 5.9.15 8.93.8 1.9.4 3.78 1.12 5.67 1.88 1.9 1 3.84 1.93 5.7 3.4 1.85 1.14 3.23 2.58 4.75 3.93l5.58 5.75c1.9 2.37 4.1 4.67 5.58 7.14l1.93 2.1c.22-.05.43-.15.6-.6.67.58.98 1.2 1.3 1.83a10.37 10.37 0 0 0-1.92.16l-2.22-.5-4.53-.77-6.67-.06-6.64.46-8.7 1.56c-3.1.73-6.37 1.8-9.6 2.8l-15.92 5.4c-6.68 2.85-13.86 4.84-20.74 7.32l-10.04 1.92-9.28 1.66-6.75.78-10.98.18-8.72-1.22c-2.38-.73-4.76-1.44-7.14-2.62-3.3-1.33-5.64-3.34-8.2-5.23-2.76-2.85-5.67-5.8-7.08-9.17-.16-.3-.93-1.78-2.3-4.44l-1.94-5.9-.6-3.68-.26-4.5-.18-1.4-.4-2.9z" id="B"/><path d="M70.33 230.25l-.35-1.88-.1-.9.38-1.97.8-2.47.74-1.17 1.36-.98 1.72-.93 1.9-.43 1.73-.06 2.53.5 2.34 1.06 2.52 1.47 2.28 2.03 1.73 2.65 1.78 3.45.56 3.27-.06 2.46-1.17 3.08c-.3.36-.58.68-.87.93-.02-.01-.15-.05-.38-.13l-1.6 1.17-1.35.8-4.32-.06-3.14-.98-2.7-1.54-2.34-2.04-1.8-2.15-1.17-2.28-.55-1.3-.5-1.6z" id="C"/><path d="M93.94 231.95l-.36-1.2c-.1-.54-.46-1-.18-1.63l.03-2.32c.03-1.12.57-2.3.92-3.2.33-.55.87-1.08 1.55-1.52l.92-.9c.32-.32.9-.48 1.5-.64.65-.16.62-.3 2.15-.5l2.13.02 2.18.4c1.04.37 2.1.58 3.13 1.2l2.74 1.7 1.9 1.7 1.94 2.43c.82 1.18 1.48 2.58 2.03 3.76.26.87.35 1.74.5 2.6.1 1.38.07 2.73-.2 4-.13 1.22-.64 2.12-1.17 3-.3.36-.53.7-.82.95l-.62.6-1.42.7-1.88.65c-1.42.38-2.84.07-4.27.1l-3.22-1.1c-.9-.5-2.13-.84-2.82-1.67-.67-.2-1.46-1.48-2.24-2.16l-1.9-2.03-1.06-1.7-.86-1.73-.65-1.5z" id="D"/><path d="M118.5 229.68l-.45-1.44-.13-1.52c-.35-1.26-.05-1.96-.04-2.9l.86-2.2 1.02-1.34c.42-.53.85-1.1 1.27-1.33.7-.36 1.46-.83 2.05-.97l2-.37 2-.1 3.07.53c.87.3 1.92.6 2.42.9.87.54 1.95.97 2.6 1.62 1.1.78 1.78 1.5 2.43 2.23.76.76 1.44 1.25 2.36 2.54.9 1.68 2 3.4 2.24 5.02.15 1.2.4 2.64.23 3.13-.04 1.05-.38 1.8-.76 2.5-.53 1.06-1.06 2.13-1.87 2.9-.3.37-.68.7-.97.95l-.56.42-1.52.4-1.42.67c-1.44.3-2.88.07-4.32-.06l-3.14-1-2.7-1.54-2.34-2.03-1.8-2.16-1.17-2.28-.55-1.3-.8-1.28z" id="E"/><path d="M140.82 221.05c-.3-.84-.35-1.73-.37-2.62l-.05-2.06.34-1.04c.4-1.12.8-1.62 1.2-2.38.06-.08.4-.5 1.02-1.2l1.35-1 1.73-.92 1.9-.44 1.72-.06 2.53.5 2.34.8 2.55 1.1 2.54 1.77 2.27 2.48c1.18 1.36 1.57 2.28 2.3 3.38.48 1.16 1.08 2.34 1 3.44.17 1.25.1 2.1.1 3.08-.36 1.18-.72 2.25-1.43 3.32-.3.36-.8 1.05-1.08 1.3l-1.03.8-.92.6-2.64.6c-1.46.16-2.94.2-4.5-.17l-3.47-1.1-3.04-1.7c-1-.47-1.52-1.2-2.14-1.9l-1.66-2.05-1.2-1.84-.73-1.27-.64-1.4z" id="F"/><path d="M164.76 215.32l-.47-1.8-.12-1.06c.01-.66.04-1.3.16-1.9.1-.85.63-1.88.97-2.84l1.03-1.08 1.53-1 1.92-.83 1.8-.1 1.77-.1 2.74.5c.73.34.96.3 2.1.76 1.18.7 2.53 1.35 3.23 2.3.62.25 1.08.75 1.6 1.16l2.07 2.04c.85 1.14 1.33 2.6 1.83 4.02.28 1.16.6 2.32.6 3.48-.17.87-.2 1.6-.28 2.38l-.86 1.75c-.3.36-1.2 1.33-1.48 1.58l-.92.64-.92.34-1.72.47-3.42.18-3.34-.8-2.65-1.4-2.56-1.86-2.74-2.8-.78-1.16-.53-1.32-.56-1.52z" id="G"/><path d="M93.92 96.86l1.98-6.78 1.6-4.56 2.34-4.68 2.6-4.8 3.32-4.68 2.7-3.45 1.98-2.22 2.83-3.08 4.3 2.34 4.8 3.45 5.67 4.3 4.06 4.32 3.33 3.45 3.2 4.56 2.83 3.94 2.34 4.07 1.6 3.94 1.36 4.3.74 4.2.24 4.7-.24 4.3-1.48 4.3-1.6 4.3-2.47 4.07-2.46 3.08-3.2 3.82-3.2 3.2-6.16 4.43c-3.08-20.12-5.58-40.25-9.86-60.38 1.53 19.15 4.33 40 6.78 60.38l-3.33-1.1-2.83-.6-3.58-1.6-4.68-2.47-2.22-1.35-2.1-1.6-2.84-2.2-2.2-2.35-2.22-2.58-2.22-3.7-2.22-6.3-.5-2.58-.62-5.06.5-4.43.62-4.3.5-2.6z" id="H"/><path d="M122.76 159.58l-48.06-4.8L85.3 157l9.86 1.6 7.64 1 10.6 1.73 8.63.98-2.34 3.82-2.84 3.82-3.57 3.7-3.33 2.7-3.82 2.46-4.3 1.48-3.82.74H92.8l-4.55-.86-4.56-1.36-6.4-2.95-6.78-4.32-5.05-4.2-3.82-4.06-3.95-4.93-2.46-3.45-2.1-3.2 3.08-2.7 4.93-4.3 3.32-2.46 3.33-2.1 6.53-3.2 4.44-2.1 5.17-1.23 6.3-.86 5.17-.13 4.8.87 4.06.98 4.7 2.6 4.2 4.2 3.94 5.17 3.33 5.43 1.48 5.17.86 2.6z" id="I"/><path d="M131.38 157.98l.5-4.07v-3.45l.74-3.08 1.23-4.56 2.46-5.17 3.2-4.7 5.05-4.68 4.93-2.6 3.82-1.48 5.42-.74 4.3-.5 5.55.12 5.05.37 5.67 1 5.42 1.6 4.93 1.85 4.68 1.73 4.93 3.08-.74 3.32-1.84 4.2-2.84 6.78-3.08 4.93-2.6 3.45-3.57 4.93-3.2 3.7c-1.3 1.43-2.73 2.13-4.7 3.57l-4.43 2.96-3.95 1.85-4.2 1.35-4.3.5-5.18-.24-4.8-1.48-5.8-2.6-5.06-3.33-4.3-3.45-2.22-2.83 29.2-11.46 11.95-4.8 9.6-4.06 12.2-4.7-11.83 3.95-10.72 3.82-8.75 3.08-8.25 2.6-9.5 3.7-5.92 1.97-9.12 3.58z" id="J"/><path d="M124 141.6l2.96.12.5 2.72.25 2.33.12 3.46.37 4.18.74 4.56 2.46-1.23 1 2.47-3.33 1.48.37 3.32.13 2.6v5.55l-.25 3.57-.37 2.96-.37 3.08-.74 3.57-1.23 4.2-1.23 3.33-1.6 3.2-2.2 3.94-1.73 2.96-2.1-.86 1.6-2.22 1.97-3.57 2.1-4.68 2.35-7.03.6-2.96.62-2.95c.35-2.84.58-6.05.6-9.86l-.12-5.18-.6-1.97-4.7-.25.74-2.7 3.58.37-.87-4.2-.5-4.93-.12-3.07-1-6.3z" id="K"/></defs><use xlink:href="#A" class="D"/><use xlink:href="#A" stroke-width="3" class="B E"/><use xlink:href="#B" fill="#fefefe"/><use xlink:href="#B" stroke="#fefefe" class="B C"/><use xlink:href="#C" class="D"/><use xlink:href="#C" class="B C E"/><use xlink:href="#D" class="D"/><use xlink:href="#D" class="B C E"/><use xlink:href="#E" class="D"/><use xlink:href="#E" class="B C E"/><use xlink:href="#F" class="D"/><use xlink:href="#F" class="B C E"/><use xlink:href="#G" class="D"/><use xlink:href="#G" class="B C E"/><use xlink:href="#H" fill="#fff"/><use xlink:href="#H" class="B C F G"/><use xlink:href="#I" fill="#fff"/><use xlink:href="#I" class="B C F G"/><use xlink:href="#J" fill="#fff"/><use xlink:href="#J" class="B C F G"/><use xlink:href="#K" fill="#fff"/><use xlink:href="#K" class="B C F G"/></svg>