<svg xmlns="http://www.w3.org/2000/svg" xmlns:xlink="http://www.w3.org/1999/xlink" preserveAspectRatio="xMidYMid meet" viewBox="23.064 53.164 217.577 217.577" width="213.08" height="213.08" xmlns:v="https://vecta.io/nano"><style><![CDATA[.B{fill-opacity:0}.C{stroke-width:.05}.D{fill:#fadd3d}.E{stroke:#fadd3d}]]></style><defs><path d="M131.1 267.74c-58.84 0-106.54-47.7-106.54-106.54S72.26 54.66 131.1 54.66s106.54 47.7 106.54 106.54-47.7 106.54-106.54 106.54z" id="A"/><path d="M140.32 103.34l3.54-6.34 5-5.68 3.63-3.63 6.36-4.55 5.46-2.5c2.27-.38 4.8-1.23 6.98-1.27l4.3-.13 6.6.88 7.24 2.46 4.54 2.57c3.12 1.95 5.13 3.67 7.44 5.45l5.64 6.2 3.48 5.3c2.05 4.17 3.73 8.33 5 12.5l1.05 7.4-.55 7.8-2.86 8.92-4.2 7.6-6.2 6.98-7.46 5.1c-3.2 1.97-6.33 2.88-10.78 4.12-4.04.6-8.3.4-12.5.58l-9.3-1.56c-3.52-1-6.78-2.26-9.77-3.86-3.62-2.05-6.7-4.47-9.55-7.04-1.95-1.9-3.12-3.88-4.5-5.85-1.76-2.87-2.6-6.18-3.87-9.38-.74-3.48-1.07-6.96-.94-10.45l1.07-7.17c.5-2.26 1.13-4.68 1.98-7.37l3.18-7.07z" id="B"/><path d="M143.5 123.95c.6 2.28.95 4.8 1.96 6.68l3.18 5.23 4.1 4.1 4.77 3.4 4.77 2.27 6.14 1.82 4.1.45 6.36.9 7.7-1.06 5.7-1.9 5-3.4 5.46-5.23 2.72-5 2.28-4.77-.57 4.55-.8 3.63-1.6 4.1-2.95 4.54c-1.62 2.14-3.38 4-5.23 5.7l-3.18 2.27-6.13 3.18-4.13 1-4.5.6-6.36.43-7.73-1.8-6.33-1.88-6.1-3.77c-1.5-1.35-2.86-3-4.6-4.8-1.8-2.12-2.68-4.24-3.86-6.36-.7-2.18-.86-4.64-1.14-7.04v-3.4l1-4.4z" id="C"/><path d="M184.3 86.33l4.1-.9.68-.23c.27-.2.2-.7 0-1.36l-3.18-1.14-6.8-.68h-3.87l-3.18.68-.68.9c1 1.2 2.27 1.28 3.18 1.93l4.46.62 5.3.18z" id="D"/><path d="M48.34 145.63l2.44-6.83 4-6.43 2.98-4.2 5.53-5.53 4.96-3.36c2.18-.75 4.53-2 6.68-2.4l4.23-.84 6.64-.22 7.55 1.24 4.9 1.78c3.4 1.4 5.67 2.77 8.24 4.15l6.6 5.18 4.3 4.64c2.7 3.77 5.06 7.6 7 11.5l2.25 7.13.75 7.78-1.35 9.27-2.87 8.18-4.97 7.9-6.52 6.26c-2.84 2.48-5.76 3.9-9.95 5.84-3.88 1.25-8.1 1.77-12.22 2.64l-9.45.01c-3.63-.4-7.06-1.12-10.27-2.2-3.9-1.43-7.35-3.3-10.58-5.37-2.23-1.54-3.72-3.3-5.4-5.02-2.2-2.54-3.58-5.67-5.36-8.6-1.3-3.32-2.2-6.7-2.66-10.16l-.12-7.25c.12-2.3.34-4.8.73-7.6l1.97-7.5z" id="E"/><path d="M54.87 165.43c.97 2.16 1.73 4.6 3.04 6.27l4 4.63 4.7 3.36 5.26 2.57 5.1 1.45 6.35.78 4.1-.22 6.42-.16 7.42-2.3 5.3-2.8 4.37-4.2 4.52-6.06 1.86-5.38 1.45-5.08.2 4.58-.2 3.7-.9 4.3-2.17 4.97c-1.24 2.37-2.66 4.5-4.2 6.47l-2.77 2.76-5.52 4.15-3.9 1.66-4.35 1.34-6.2 1.47-7.9-.5-6.56-.8-6.65-2.7c-1.7-1.08-3.32-2.5-5.33-3.98-2.13-1.8-3.34-3.74-4.86-5.63-1.05-2.04-1.6-4.44-2.28-6.76l-.56-3.36.25-4.52z" id="F"/><path d="M88.9 121.6L92.8 120l.64-.33c.23-.24.07-.74-.23-1.35l-3.32-.6-6.84.45-3.8.64-3.02 1.2-.52 1c1.18 1 2.44.9 3.45 1.37l4.5-.12 5.27-.7z" id="G"/><path d="M196.57 193.02l1.47 7.5-.6 6.7-3.27 8.26-2.3 4.17-1.8 3.08c-1.03 2.06-1.6 2.2-2.84 4l-3.33 3.58-4.02 3.5-3.24 2.6-3.62 2.24c-3.4 1.4-2.76 1.66-5.56 2.48l-5.04 1.3-6.6.76c-4.57-.78-5.72-.9-9.83-2.3l-7.3-4.7-4.03-3.75-4.7-6.22-2.72-5.82-2.37-7.72-.07-8.42c.3-3.76.43-6.45 2.04-10.78 1.9-3.62 3.17-6.95 5.5-10.47l6.5-8c2.86-2.27 5.8-3.26 8.86-4.74 3.78-1.73 6.64-1.22 10.4-2 2.67-.48 5.43.42 7.83.45 3.36.26 7.2 3.12 10.55 3.97 3.25 1.44 4 2.53 6.74 4.68l4.96 3.7c1.53 1.72 4.26 5.25 5.94 7.5l2.5 4.45z" id="H"/><path d="M156.5 177.36l-1.73 1.3-1.77 1.54-1.93 1.83-1.64 1.5-2.05 1.98-1.8 2.22-1.85 2.28-3.84 5.95-2.72 6.63-1.35 7.15-.05 6.1c.15 2.36.8 4.86 1.5 7.4l2.08 5.32 2.53 4.6-3.56-3.25-2.47-2.78-2.57-3.68-2.37-5.12c-.78-2.57-1.64-5.1-1.9-7.57l-.12-3.84.67-6.98 1.34-5.3 2.1-4.3 3.38-5.62c1.33-2.03 3.1-3.9 5.35-5.55 1.26-1.8 3.84-2.56 5.94-3.7 1.62-.83 3.8-1.33 6.35-1.6 1.98-.43-.22.07 2.26-.28 2.78-.23 2.48-.3 4.9-.03 2.42.7-1.7.54-2.16 1.88l-1.37 1.16-1.14.74z" id="I"/><path d="M179.1 227.26l-1.67 3.85-.2.68c0 .33.46.58 1.1.8 1 .1 2-.82 3-1.42 3.9-4.67 2.8-2.42 4.9-5.75l1.7-3 1.3-2.98-.33-1.08c-1.55-.73-2.37.9-3.43 1.44l-3.12 3.25-3.25 4.2z" id="J"/></defs><use xlink:href="#A" class="D"/><use xlink:href="#A" stroke-width="3" class="B E"/><use xlink:href="#B" fill="#fff"/><use xlink:href="#B" stroke="#fff" class="B C"/><use xlink:href="#C" class="D"/><use xlink:href="#C" class="B C E"/><use xlink:href="#D" class="D"/><use xlink:href="#D" class="B C E"/><use xlink:href="#E" fill="#fff"/><use xlink:href="#E" stroke="#fff" class="B C"/><use xlink:href="#F" class="D"/><use xlink:href="#F" class="B C E"/><use xlink:href="#G" class="D"/><use xlink:href="#G" class="B C E"/><use xlink:href="#H" fill="#fff"/><use xlink:href="#H" stroke="#fff" class="B C"/><use xlink:href="#I" class="D"/><use xlink:href="#I" class="B C E"/><use xlink:href="#J" class="D"/><use xlink:href="#J" class="B C E"/></svg>