<svg xmlns="http://www.w3.org/2000/svg" xmlns:xlink="http://www.w3.org/1999/xlink" preserveAspectRatio="xMidYMid meet" viewBox="23.064 33.947 217.577 222.119" width="213.08" height="217.97" xmlns:v="https://vecta.io/nano"><defs><path d="M131.1 248.52c-58.84 0-106.54-47.7-106.54-106.53S72.26 35.45 131.1 35.45 237.64 83.15 237.64 142s-47.7 106.53-106.54 106.53z" id="A"/><path d="M93.03 250.95l7.87-12.75 8.12-11.7-1.76-1.05-1.4-1.6-1.4-4.04.25-5.62 3.26-10.02 4.05-7.73 3.86-5.63.7 4.75.36 9.14-.26 6.85-.62 6.5 4.57-4.92 5.62-5.45 3-2.98-1.58-2.46-.27-2.97.62-3.2 1-2.4 2.33-5 4.22-5.8 2.63-3 2.88-3.16 3.48-8.14 3.23-9.4-1.24 5.16-1.93 6.4-2.23 6.34-1.18 8.76-1.18 6.34-1.37 4.9 10.75-7.46-1.18-1.55-.44-2.1.38-3.3 2.05-4.35 5.78-6.77 5.22-4.66 1.74-1.3 4.1-6.96 3.35-6.83-2.54 6.2-2.43 4.85-1.74 3.36-1.68 7.33-2.1 6.1-2.36 5.34 11.3-5.28-1.18-1.93-.2-2.36 1.43-3.54 1.87-2.67 3.9-3.98 3.8-2.8 3.42-2.17.74-.56 2.6-3.48 2.74-3.8 1.6-2.36 1.37-2.36-2.24 4.28-2.8 4.48-2.5 3.73-2.17 5.7-2.24 5.16-2.36 4.04-1.74 2.36 6.24-2 7.93-2.27.9-.18.52-.07.08-.13-.66-1.38c0-.2-.05-.4-.06-.6a4.76 4.76 0 0 1 .23-1.69c.53-1.38 1.2-2.42 2.42-3.5 1.3-1.13 2.56-2.36 3.96-3.16l2.95-1.87.83-.5 2.5-3.15 1.37-1.8 1.05-1.55-2.1 3.36-2.67 3.72-.75 1-1.7 3.42-1.3 2.58-1.77 2.82-1.96 2 3.47-.72 4.27-.7 3.97-.5 5.83-.65-5.35.8c-4 .4-7.65 1.4-11.3 2.43l3.98 1.05 3.42 1.5 1.8.75 3.54.56 4.97 1.18-5.6-1.06-2.8-.18-3.48.68-5.22.56-3.42-.37-1.8-.8-1.3-1.43-.25-.62c-2.9.5-5.67 1.72-8.47 2.72l-6.2 2.68 2.24.3 5.34 1.12 3.42 1.12 5.1 1.68 2.17.2 5.04.68 4.1.8 3.1.8-5.34-.87-6.03-.62-3.23-.06-3.48 1.3-5.47 1.18-5.7.68-3.8-.25-2.5-.74-1.93-1.43-1.24-1.8-5.22 2.8-5.16 3.23 3.98.06 5.78.87 5.1.94 4.42 1.12 3.73-.13 3.54.06 4.47.38 2.24.12 2.17.3-6.46-.2-10.25.63-3.3 1.24-2.98 1.3-6.83 2.05-5.1.7-3.54-.2-2.36-.56-1.68-1.05-1.43-1.56c-3.83 1.42-6.05 4.27-8.45 6.96l4.04-.3 4.4-.06 4.23.2 4.35.37 2.42.5 3.17-.5 3.73-.44 3.8-.37 3.3-.25 4.8-.06-4.9.5-7.6 1.05-5.4 1.18-4.66 2.86-5.9 2.92-4.53 1.8-4.72 1.3-4.66.25-2.5-.56-1.62-.68-1-.75c-3.87 3.15-6.66 7.4-9.76 11.3l3.98-1 5.03-1 4.73-.68 3.48-.37 3.17-.32 7.33-2.54 4.4-1.25 4.16-1.05 3.67-.87-4.78 1.55-4.9 1.62-5.1 2-4.1 1.8-1.3.68-6.15 5.28-4.6 3.6-5.46 3.17-3.86 1.8-2.8.68-2.92.25-1.68-.3-1.24-.44c-4.23 5.32-6.84 10.96-9.45 16.6l-7.03-2.12z" id="B"/><path d="M63.63 236.65l5.93 3.74 2.02-10.86 2.68-11.38 3.12-12.52.92.35 2.46.75 3.12.04 2.16-.4 2.2-.75 1.94-1.05 2.77-1.67 3.25-2.73 2.98-3.07 2.9-3.2 2.03-2.77 2.1-2.94 3.07-4.8 3.2-5.32 1.84-3.38 1.32-2.6 8.18-7.38 5.05-4.04 5.8-4.53 3.34-2.37-2.64 1.63-4.6 3.03-6.15 4.17-8.22 6.42-1.28 1.23-1.05.74-.8.8-5.14 2.32-4.8 2.33-4.83 2.46-4.44 2.46-4.7 2.95-3.52 2.33-3.95 3.2 5.97-17.76h.5l2.32.93 1.76.26 3.87-.4 3.7-1.53 3.34-2.24 3.25-2.82 4-4.48 5.27-7.34 2.86-4.57 1.76-2.8 1.9-3.6 7.5-6.94 4.22-3.52 4.04-3.2 3.87-2.85 1.45-1-3.04 1.9-5.36 3.5-4 2.8-4.27 3.08-3.64 3-1.76 1.5-5.5 2.42-5.28 2.5-3.9 2.07-3.12 1.7-5.36 3.3-4.3 3.12-.1-.5 5.84-13.5 2.1.97 3 .48 4.26-.96 3.12-1.5 2.6-1.97 2.6-2.33 2.9-3 3.03-3.87 2.77-3.78 2.68-4 2.6-4.4 4.7-4.1 4.3-3.38 3.5-2.6 2.3-1.58 2.06-1.28 2.55-1.76-2.86 1.63-3.2 1.93-3.2 1.98-3.74 2.33-4.2 3.12-3.2 2.33-7.9 3.2-5.76 2.63-5.7 3.03-4.83 3.17 7.9-15.12 1.18.97 2.07.8 2.1.18 2.4-.4 2.95-1.36 3.6-2.55 4.75-5.14 4.2-6.02 2.7-4.48 2.06-3.6 3.38-3.16 4.18-3.43 2.85-2.2 2.38-1.8 3.25-2.2-2.9 1.75-3.3 1.98-2.85 1.98-4.22 3-2.68 2.1-1.54 1.27-5 2.2-4.8 2.24-5.18 2.94-3.25 2.07-1.67 1.23 8.4-13.05.83.74 1.58 1.02 2.33.3 2.42-.3 2.64-1.02 3.82-2.63 3.73-3.6 2.16-2.5 3.6-4.74 2.07-3.2.4-.5 2.3-1.93 3.56-2.5 3.2-2.2 2.46-1.58 2.07-1.4 1.36-.8-2.02.97-3.2 1.58-2.77 1.54-2.8 1.75-2.02 1.4-1.32.88-1.76 1.2-3.77 1.3-4.75 1.9-4.22 2.02-3.47 1.85-2.33 1.45 11.78-15.6 1.62-1.9-3.07 1.8-11.12 13.1.1-5.5-.92-5.28-1.28-4.8-1.18-4.13-1.9-5.05-.58-6.06-.4-3.48-.92-4.87-.75-3.56.4 3.12.5 4.04.26 4.4.27 6.02-1.23 3.3-.88 4.17-1.15 5.54-.48 4.3.1 4.65 1 3.74 1.5 2.46 1.63 1.45 1.45.6.66.27L118.9 99.6l-.35-5.5-1.1-4.8-1.14-4.17-1.62-4.27-1.8-4.52-1.5-3.43-.75-1.45-.88-5.36-.87-4.17-.84-3.74-.83-3.3-1.2-3.77.88 3.73.83 4.75.84 5.58.48 5.97.1.93-1.1 4.92-.8 4.35-.7 5.84v7.6l.57 3.52 1.36 3.7 2.15 2.77 1.54.83 1.1.62.8.17.57.1-9.7 16.6-.35-4.04-.8-3.9-1.4-5.45-1.58-5.05-1.63-4.44-1.36-3.52-1.14-2.72-.75-6.37-.8-4.53-.83-4.26-1.06-4.57L92 69.6l.75 4.22.88 5.4.48 4.75.44 5.27.26 3.65-1.23 4.48-1.23 5.27-.8 4.27-.7 6.06-.18 4.66.44 4.6.93 3.65 1.9 3.5 1.75 1.85 1.67 1 1.23.48 1.1.35-6.63 13.58-1.98-7.86-2.72-7.65-1.94-4.8-2.02-4.6-.97-2.1-.4-.8-.92-5.32-1.63-7.64-.88-3.7-.8-3.07-.75-2.55-.74-2.46-.5-1.7.97 4.3 1.32 6.07.92 5.66.62 4.5.57 5.14-.97 3.86-1.05 5.58-.97 5.8-.57 6.5v6.8l.6 4.57 1.5 5.23 1.36 2.37 1.54 1.9 1.45 1.14 1.14.7.8.4-4.75 12.13-1.27-5.45-1.98-6.33-1.93-5.27-2.07-5.23-2.8-6.06-1.62-3.43-.84-4.62-1.14-5.27-.92-4-1.37-5.1-1.67-5.63-1.3-4.08 1.18 4.48 1.58 7.12 1.32 7.1.93 7.12.35 3.03-1.2 5.76-1.05 5.54-.97 7.25-.44 7.64.26 5.23.4 3.82 1.05 4.44 1.72 3.96 1.8 2.5 2.46 2.2 2.37.92.97.35-3.25 11.03-3.08 10.68-2.77 11.42-2.4 10.46z" id="C"/></defs><use xlink:href="#A" fill="#f47039"/><use xlink:href="#A" fill-opacity="0" stroke="#f47039" stroke-width="3"/><use xlink:href="#B" fill="#fff"/><use xlink:href="#B" fill-opacity="0" stroke="#fff" stroke-width=".05"/><use xlink:href="#C" fill="#fff"/><use xlink:href="#C" fill-opacity="0" stroke="#fff" stroke-width=".05"/></svg>