<svg xmlns="http://www.w3.org/2000/svg" xmlns:xlink="http://www.w3.org/1999/xlink" preserveAspectRatio="xMidYMid meet" viewBox="23.064 54.695 217.577 217.577" width="213.08" height="213.08" xmlns:v="https://vecta.io/nano"><style><![CDATA[.B{fill-opacity:0}.C{stroke-width:.05}.D{fill:#54bf36}.E{stroke:#54bf36}.F{stroke:#fff}]]></style><defs><path d="M131.1 269.27c-58.84 0-106.54-47.7-106.54-106.54S72.26 56.2 131.1 56.2s106.54 47.7 106.54 106.53-47.7 106.54-106.54 106.54z" id="A"/><path d="M174 101.38l-.22-1.8-.58-1.17-.9-1.23-.85-.63-.96-.53-1.65-.32-3.98-.06-2.5-.26-.74-.32.9.9.58.96.7 1.38.22 1.43-.06 1.5-.48 1.06-.16.86.32 1 1.17.75 1.54.7 1.86.37 3.3-.48 1.38-.9.74-.9.27-1 .1-1.28z" id="B"/><path d="M109.6 101.7l1.65-.64.7-.9.42-.85.1-1.12-.2-1.17-.48-1.43-.64-2.28-.32-1-.05-1.65.42-1.17.85-.53 1.12-.48 1.22-.27 1.38.1 1.28.53 1.22.85 1.22.64 1.6.64 1.65-.1 1.17-.48 1.22-.95 1.54-1.86 1-1.33 1.22-1.17 1.23-.74 1.64-.27 1.54.2 2.87 1.07 1.7.47 1.6.22h1.1l1.7-.64 1.86-.64 2.45-.48 1.7.1 1.75.7 1.8.96 1.33 1.38 1.64 2.18 1.22 1.9 1.07 2.12-1.07-.2-3.24-.1-1.8.1-1.65.2-1.8.38-2.17.8-1.7.7-.7.8-.37 1.17v1l.32 1.17.75 2.34-2.77-1.12-2.34-1.06-2.76-1.33-2.97-1.17-1.92-.64-2.65-.42-1.92.1-1.7.9-1.32 1.33-.54 1.86-.42 3.02-.53 2.45-.9 2.18-1.17.47-1.6-.2-1.9-.9-2.6-1.8-2.77-2.6-1.27-1.33z" id="C"/><path d="M99.98 114.32v-3.27l.4-2.6 2.1-3.2.96-1.92c.17-.4.22-1 .17-1.76-.5-.85-1.15-1.05-1.8-1.32L99 99.4c-1.1.08-2.34-.1-3.1.38-1.75.78-1.46 1.15-1.87 1.65l-1.35 3.28-.96 1.53-1.34.77-1.76.47c-.1.3-.4.58.05.74l1.74 1.93c.86.93 1.56 1.95 1.7 3.24l.04 1.74c-.14 1.1-.7 1.96-1.2 2.85-.06.07-.38.4-.96.97l2.3-.58 2.75-.58 2.45-.96 1.73-.96.77-1.54z" id="D"/><path d="M106.75 103.34L105.2 106l-1 2.88-.36 2.5-.36 2.16-.27 1.88-.8 1.17-1.07 1.26-1.17.62-2.16 1.44-2.06.54-2.96.8-3.15.63-2.15.53-1.53.54 2.97 1.26 2.87 1 3.23 1 4.67 1.52 4.13.8 1.62.9 2.24 3.4 1.26 1 1.34.63h2.16l1.17.62 1.07.8.54 1.53-.54 1.7v1.35l.27.72 1 .63.45 7.63.1 19.57-1 7.1-1.08 13.83-.8 8.26-.45 8.9v5.3l.36 7.72 1.07 4.76 1.7 3.5 1.53 1.88.62.27 1.8 4.13 2.06 2.7 2.52 1.88 1.97 1.08.1.27 2.52.36 3.6.45 3.5-.18 1.44-1 1.8-1.08 1.62-2.24 1.52-1.9.9-1.52c1.26-.83 2.08-.87 4-2.88l2.02-3.5 1.43-3.68 1-4.76.36-4.67-.36-7.9-.54-7.45-.45-6.02-.26-5.83-.18-8.17.35-15.17-.53-12.93v-7.37l-.18-5.65.6-.12.66.6 1.22.4.83.17.33-.33 1.5-1.94 1.82-1.93 1-1.27.22-.78v-.77l.16-.55.94-1.6 2-1.7 2.1-1.44 2.44-1.2 2.87-1.16 2.38-1.4 1.76-1.2 1.28-1 .7-.77.6-.77h-1l-1.94-.34-1.6-.5-1-.67-.45-.7-.1-1.22.83-1.77 1.77-2.43 1.5-1.82.6-1 .44-.83.22-.55-.88.44-1.44.44-1.77.45-1.7.1-1.44.1-2-.1-1.38-.34s-1-.88-1-.44-1.55-.94-1.55-.94l-1.1-1.16-.5-1.5v-1.44l.44-2.32.33-1.44-.44-1-.94-.88-2.2-.72-2.1-.28H153l-2.16.1-1.77.33-1.5.67-.88 1.43-.06 2.2.28 1.83-.4 1.5-1.05.4-1.77-.17-2.65-.83-2.6-.88-3.1-1.22-2.8-1.05-1.94-.44-1.38-.17-1.1.06-1.65.44-1.05 1.16-.34 1.88-.77 4.15-.6 1.43-.88 1.22-1.22.94-1.38.33h-1.88l-1.82-.5-2.27-1.32-2.48-1.66-1.83-1.66-1.33-1.22-1.38-1.1-.48-.4z" id="E"/><path d="M143.77 126.4l-.45-5.47-.22-4.54-.22-1.16-.6 1.55-.5 1.72-.4 1.65-.28 1.83-.05 1.5.16 2.1.17 3.98-.1 3.92-.17 5.8.44-.06-.05 2.76.22 4.2.17 2.55.33 4.64.83 13.65-.4 10.6.1 4.04-.05 2.2.1 9.9.6 8.73.28 4.92.28 2.65 1 14.82.17 1.7-.22 2.1-.28 1.16-.06 1.05 1.22-.94 1-1.05.5-.77.5-.9.6-2 .55-3.3.5-8.3v-5.8l-.28-7.07-.4-7.4-.27-4.97-.44-6.14-.23-2.1v-5.36l-.1-4.3-.16-4.75-.4-21.22V138l-.22-1.98-.28-2.38-.22-2.5v-1.82l-.22-1.33-.22-.66-.28-.4-.38-.1-.6-.17h-.33l-.66-.27z" id="F"/><path d="M117.57 118.34l2.43 1.27 2.16.88 1.32.4 1.55.1.94-.5.1-1.05-.44-1.2.16-.33 1.4 1.77 1.93 2.65 3.37 4.86 1.82 2.88 2.55 3.64.88 2.38.72 2.27.28 1.93.44.17v2.32l.16 2.26.23 5.97-.4 11.66-.44 15.2.6 8.74 1.05 17.52.5 8.62.22 10.55-.44 5.53-1.38 4.1-1.05 1.66-1.6 1.32-2.27 1.1-1.7.55h-2.38l-1.88-.83-2.6-2.04-2-3.1-1.54-4.58-.4-5.03.1-4.04.1-6.02.28-3.04.44-8.46 1.2-9.67 1.33-10.78.72-7.96.16-4.42.06-1.93v-1.83l-.1-2.6.55 3.92.22 3.76.9 8.46.88 9.72.67 7.85.6 7.8.28 3.1v7.96l-.06 4.7-.27 4.8.5.78.56.33.72-.06.6-.38-.05-.4.4-8.07-.12-4.8.06-2.15-.44-8.3-.78-9.8-.82-8.84-1.66-16.58-.72-9.06-.72-6.52-.1-.5-.22-.06.66-7.4.5.16-.17-.55-.27-.83.05-1.33-.16-2.6v-1.44l-.22-2.2-.78-2.65-.94-2.27-1.54-2.6-2-2.65-1.88-1.77-1.27-1.16-1.55-1.27z" id="G"/><path d="M118.14 225.73l-.2-6.53.38-9.8 2.7-17.68 2.5-15.96.58-5.96v-5.96l.38-22.87-1.15-4.42-.96-1.54-1.2-1.86-1.63-1.92-2.5-1.92.86 2.4.96 1.64.97 1.82v1.93l.1 1.73-.2 1.82-.4 1.35.3.96.3 2.8.1 3.65.3 6.06.1 5.2-.3 6.63v2.88l-1.25 12.5-.86 5.77-.48 6.15-.4 3.08-.28 7.97-.2 6.54-.2 4.04.2 4.23.3 2.5.58 2.1.63.7z" id="H"/></defs><use xlink:href="#A" class="D"/><use xlink:href="#A" stroke-width="3" class="B E"/><use xlink:href="#B" fill="#fff"/><use xlink:href="#B" class="B C F"/><use xlink:href="#C" fill="#fff"/><use xlink:href="#C" class="B C F"/><use xlink:href="#D" fill="#fff"/><use xlink:href="#D" class="B C F"/><use xlink:href="#E" fill="#fff"/><use xlink:href="#E" class="B C F"/><use xlink:href="#F" class="D"/><use xlink:href="#F" class="B C E"/><use xlink:href="#G" class="D"/><use xlink:href="#G" class="B C E"/><use xlink:href="#H" class="D"/><use xlink:href="#H" class="B C E"/></svg>