<?xml version="1.0" encoding="UTF-8" standalone="no"?><!-- Generator: Gravit.io --><svg xmlns="http://www.w3.org/2000/svg" xmlns:xlink="http://www.w3.org/1999/xlink" style="isolation:isolate" viewBox="0 0 158.893 40" width="158.893pt" height="40pt"><defs><clipPath id="_clipPath_mWMkuqlURUSIAdo8G5bum1gAR0RSgqws"><rect width="158.893" height="40"/></clipPath></defs><g clip-path="url(#_clipPath_mWMkuqlURUSIAdo8G5bum1gAR0RSgqws)"><rect width="158.893" height="40" style="fill:rgb(0,0,0)" fill-opacity="0"/><g><path d=" M 74.197 13.076 L 74.197 13.076 Q 72.479 13.076 72.479 11.136 L 72.479 11.136 L 72.479 8.166 L 71.603 8.166 L 71.603 8.166 Q 71.493 8.166 71.426 8.1 L 71.426 8.1 L 71.426 8.1 Q 71.36 8.033 71.36 7.922 L 71.36 7.922 L 71.36 7.568 L 71.36 7.568 Q 71.36 7.457 71.426 7.385 L 71.426 7.385 L 71.426 7.385 Q 71.493 7.313 71.603 7.313 L 71.603 7.313 L 72.479 7.313 L 72.479 5.462 L 72.479 5.462 Q 72.479 5.351 72.545 5.279 L 72.545 5.279 L 72.545 5.279 Q 72.612 5.207 72.723 5.207 L 72.723 5.207 L 73.21 5.207 L 73.21 5.207 Q 73.321 5.207 73.393 5.279 L 73.393 5.279 L 73.393 5.279 Q 73.465 5.351 73.465 5.462 L 73.465 5.462 L 73.465 7.313 L 74.839 7.313 L 74.839 7.313 Q 74.95 7.313 75.022 7.385 L 75.022 7.385 L 75.022 7.385 Q 75.094 7.457 75.094 7.568 L 75.094 7.568 L 75.094 7.922 L 75.094 7.922 Q 75.094 8.033 75.022 8.1 L 75.022 8.1 L 75.022 8.1 Q 74.95 8.166 74.839 8.166 L 74.839 8.166 L 73.465 8.166 L 73.465 11.059 L 73.465 11.059 Q 73.465 11.624 73.648 11.912 L 73.648 11.912 L 73.648 11.912 Q 73.831 12.2 74.274 12.2 L 74.274 12.2 L 74.95 12.2 L 74.95 12.2 Q 75.061 12.2 75.128 12.272 L 75.128 12.272 L 75.128 12.272 Q 75.194 12.344 75.194 12.455 L 75.194 12.455 L 75.194 12.821 L 75.194 12.821 Q 75.194 12.932 75.128 13.004 L 75.128 13.004 L 75.128 13.004 Q 75.061 13.076 74.95 13.076 L 74.95 13.076 L 74.197 13.076 Z  M 78.779 13.187 L 78.779 13.187 Q 77.726 13.187 77.15 12.505 L 77.15 12.505 L 77.15 12.505 Q 76.574 11.824 76.574 10.693 L 76.574 10.693 L 76.574 7.568 L 76.574 7.568 Q 76.574 7.457 76.646 7.385 L 76.646 7.385 L 76.646 7.385 Q 76.718 7.313 76.829 7.313 L 76.829 7.313 L 77.339 7.313 L 77.339 7.313 Q 77.449 7.313 77.521 7.385 L 77.521 7.385 L 77.521 7.385 Q 77.593 7.457 77.593 7.568 L 77.593 7.568 L 77.593 10.638 L 77.593 10.638 Q 77.593 12.322 79.056 12.322 L 79.056 12.322 L 79.056 12.322 Q 79.766 12.322 80.181 11.873 L 80.181 11.873 L 80.181 11.873 Q 80.597 11.425 80.597 10.638 L 80.597 10.638 L 80.597 7.568 L 80.597 7.568 Q 80.597 7.457 80.669 7.385 L 80.669 7.385 L 80.669 7.385 Q 80.741 7.313 80.852 7.313 L 80.852 7.313 L 81.361 7.313 L 81.361 7.313 Q 81.472 7.313 81.544 7.385 L 81.544 7.385 L 81.544 7.385 Q 81.616 7.457 81.616 7.568 L 81.616 7.568 L 81.616 12.821 L 81.616 12.821 Q 81.616 12.932 81.544 13.004 L 81.544 13.004 L 81.544 13.004 Q 81.472 13.076 81.361 13.076 L 81.361 13.076 L 80.885 13.076 L 80.885 13.076 Q 80.774 13.076 80.702 13.004 L 80.702 13.004 L 80.702 13.004 Q 80.63 12.932 80.63 12.821 L 80.63 12.821 L 80.63 12.322 L 80.63 12.322 Q 80.309 12.754 79.876 12.971 L 79.876 12.971 L 79.876 12.971 Q 79.444 13.187 78.779 13.187 L 78.779 13.187 Z  M 48.641 13.076 L 48.641 13.076 Q 48.53 13.076 48.463 13.004 L 48.463 13.004 L 48.463 13.004 Q 48.397 12.932 48.397 12.821 L 48.397 12.821 L 48.397 5.584 L 48.397 5.584 Q 48.397 5.462 48.463 5.39 L 48.463 5.39 L 48.463 5.39 Q 48.53 5.318 48.641 5.318 L 48.641 5.318 L 49.173 5.318 L 49.173 5.318 Q 49.294 5.318 49.367 5.39 L 49.367 5.39 L 49.367 5.39 Q 49.439 5.462 49.439 5.584 L 49.439 5.584 L 49.439 8.665 L 53.295 8.665 L 53.295 5.584 L 53.295 5.584 Q 53.295 5.462 53.367 5.39 L 53.367 5.39 L 53.367 5.39 Q 53.439 5.318 53.55 5.318 L 53.55 5.318 L 54.082 5.318 L 54.082 5.318 Q 54.204 5.318 54.276 5.39 L 54.276 5.39 L 54.276 5.39 Q 54.348 5.462 54.348 5.584 L 54.348 5.584 L 54.348 12.821 L 54.348 12.821 Q 54.348 12.932 54.271 13.004 L 54.271 13.004 L 54.271 13.004 Q 54.193 13.076 54.082 13.076 L 54.082 13.076 L 53.55 13.076 L 53.55 13.076 Q 53.439 13.076 53.367 13.004 L 53.367 13.004 L 53.367 13.004 Q 53.295 12.932 53.295 12.821 L 53.295 12.821 L 53.295 9.629 L 49.439 9.629 L 49.439 12.821 L 49.439 12.821 Q 49.439 12.932 49.361 13.004 L 49.361 13.004 L 49.361 13.004 Q 49.283 13.076 49.173 13.076 L 49.173 13.076 L 48.641 13.076 Z  M 58.088 13.187 L 58.088 13.187 Q 57.545 13.187 57.085 12.965 L 57.085 12.965 L 57.085 12.965 Q 56.626 12.743 56.354 12.361 L 56.354 12.361 L 56.354 12.361 Q 56.082 11.979 56.082 11.513 L 56.082 11.513 L 56.082 11.513 Q 56.082 10.782 56.681 10.316 L 56.681 10.316 L 56.681 10.316 Q 57.279 9.851 58.31 9.696 L 58.31 9.696 L 59.972 9.463 L 59.972 9.142 L 59.972 9.142 Q 59.972 8 58.654 8 L 58.654 8 L 58.654 8 Q 58.144 8 57.834 8.205 L 57.834 8.205 L 57.834 8.205 Q 57.523 8.41 57.379 8.687 L 57.379 8.687 L 57.379 8.687 Q 57.335 8.798 57.285 8.837 L 57.285 8.837 L 57.285 8.837 Q 57.235 8.876 57.146 8.876 L 57.146 8.876 L 56.714 8.876 L 56.714 8.876 Q 56.614 8.876 56.542 8.804 L 56.542 8.804 L 56.542 8.804 Q 56.47 8.731 56.47 8.632 L 56.47 8.632 L 56.47 8.632 Q 56.47 8.377 56.709 8.039 L 56.709 8.039 L 56.709 8.039 Q 56.947 7.701 57.446 7.451 L 57.446 7.451 L 57.446 7.451 Q 57.944 7.202 58.665 7.202 L 58.665 7.202 L 58.665 7.202 Q 59.906 7.202 60.443 7.778 L 60.443 7.778 L 60.443 7.778 Q 60.981 8.355 60.981 9.219 L 60.981 9.219 L 60.981 12.821 L 60.981 12.821 Q 60.981 12.932 60.909 13.004 L 60.909 13.004 L 60.909 13.004 Q 60.837 13.076 60.726 13.076 L 60.726 13.076 L 60.238 13.076 L 60.238 13.076 Q 60.128 13.076 60.061 13.004 L 60.061 13.004 L 60.061 13.004 Q 59.995 12.932 59.995 12.821 L 59.995 12.821 L 59.995 12.333 L 59.995 12.333 Q 59.751 12.699 59.285 12.943 L 59.285 12.943 L 59.285 12.943 Q 58.82 13.187 58.088 13.187 L 58.088 13.187 Z  M 58.31 12.378 L 58.31 12.378 Q 59.042 12.378 59.507 11.901 L 59.507 11.901 L 59.507 11.901 Q 59.972 11.425 59.972 10.516 L 59.972 10.516 L 59.972 10.205 L 58.676 10.394 L 58.676 10.394 Q 57.878 10.505 57.468 10.771 L 57.468 10.771 L 57.468 10.771 Q 57.058 11.037 57.058 11.436 L 57.058 11.436 L 57.058 11.436 Q 57.058 11.89 57.429 12.134 L 57.429 12.134 L 57.429 12.134 Q 57.8 12.378 58.31 12.378 L 58.31 12.378 Z  M 62.815 13.076 L 62.815 13.076 Q 62.704 13.076 62.632 13.004 L 62.632 13.004 L 62.632 13.004 Q 62.56 12.932 62.56 12.821 L 62.56 12.821 L 62.56 12.455 L 62.56 12.455 Q 62.56 12.367 62.61 12.272 L 62.61 12.272 L 62.61 12.272 Q 62.66 12.178 62.715 12.101 L 62.715 12.101 L 65.807 8.166 L 62.915 8.166 L 62.915 8.166 Q 62.804 8.166 62.737 8.094 L 62.737 8.094 L 62.737 8.094 Q 62.671 8.022 62.671 7.911 L 62.671 7.911 L 62.671 7.568 L 62.671 7.568 Q 62.671 7.457 62.737 7.385 L 62.737 7.385 L 62.737 7.385 Q 62.804 7.313 62.915 7.313 L 62.915 7.313 L 66.838 7.313 L 66.838 7.313 Q 66.949 7.313 67.021 7.385 L 67.021 7.385 L 67.021 7.385 Q 67.093 7.457 67.093 7.568 L 67.093 7.568 L 67.093 7.956 L 67.093 7.956 Q 67.093 8.078 66.938 8.299 L 66.938 8.299 L 63.89 12.222 L 67.06 12.222 L 67.06 12.222 Q 67.182 12.222 67.248 12.289 L 67.248 12.289 L 67.248 12.289 Q 67.315 12.355 67.315 12.477 L 67.315 12.477 L 67.315 12.821 L 67.315 12.821 Q 67.315 12.932 67.243 13.004 L 67.243 13.004 L 67.243 13.004 Q 67.17 13.076 67.06 13.076 L 67.06 13.076 L 62.815 13.076 Z " fill="rgb(0,0,0)"/><path d=" M 48.829 34.466 L 48.829 34.466 Q 48.649 34.466 48.523 34.34 L 48.523 34.34 L 48.523 34.34 Q 48.397 34.214 48.397 34.034 L 48.397 34.034 L 48.397 22.302 L 48.397 22.302 Q 48.397 22.104 48.514 21.978 L 48.514 21.978 L 48.514 21.978 Q 48.631 21.852 48.829 21.852 L 48.829 21.852 L 53.226 21.852 L 53.226 21.852 Q 58.543 21.852 58.651 26.753 L 58.651 26.753 L 58.651 26.753 Q 58.687 27.799 58.687 28.159 L 58.687 28.159 L 58.687 28.159 Q 58.687 28.502 58.651 29.547 L 58.651 29.547 L 58.651 29.547 Q 58.579 32.07 57.29 33.268 L 57.29 33.268 L 57.29 33.268 Q 56.002 34.466 53.317 34.466 L 53.317 34.466 L 48.829 34.466 Z  M 50.938 32.376 L 53.226 32.376 L 53.226 32.376 Q 54.722 32.376 55.389 31.709 L 55.389 31.709 L 55.389 31.709 Q 56.056 31.042 56.092 29.493 L 56.092 29.493 L 56.092 29.493 Q 56.128 28.411 56.128 28.141 L 56.128 28.141 L 56.128 28.141 Q 56.128 27.853 56.092 26.808 L 56.092 26.808 L 56.092 26.808 Q 56.056 25.33 55.353 24.636 L 55.353 24.636 L 55.353 24.636 Q 54.65 23.942 53.136 23.942 L 53.136 23.942 L 50.938 23.942 L 50.938 32.376 Z  M 61.777 23.564 L 61.777 23.564 Q 61.597 23.564 61.471 23.438 L 61.471 23.438 L 61.471 23.438 Q 61.345 23.311 61.345 23.131 L 61.345 23.131 L 61.345 21.816 L 61.345 21.816 Q 61.345 21.617 61.471 21.491 L 61.471 21.491 L 61.471 21.491 Q 61.597 21.365 61.777 21.365 L 61.777 21.365 L 63.435 21.365 L 63.435 21.365 Q 63.634 21.365 63.76 21.491 L 63.76 21.491 L 63.76 21.491 Q 63.886 21.617 63.886 21.816 L 63.886 21.816 L 63.886 23.131 L 63.886 23.131 Q 63.886 23.311 63.751 23.438 L 63.751 23.438 L 63.751 23.438 Q 63.616 23.564 63.435 23.564 L 63.435 23.564 L 61.777 23.564 Z  M 61.849 34.466 L 61.849 34.466 Q 61.669 34.466 61.543 34.34 L 61.543 34.34 L 61.543 34.34 Q 61.417 34.214 61.417 34.034 L 61.417 34.034 L 61.417 25.528 L 61.417 25.528 Q 61.417 25.33 61.543 25.213 L 61.543 25.213 L 61.543 25.213 Q 61.669 25.096 61.849 25.096 L 61.849 25.096 L 63.381 25.096 L 63.381 25.096 Q 63.561 25.096 63.688 25.222 L 63.688 25.222 L 63.688 25.222 Q 63.814 25.348 63.814 25.528 L 63.814 25.528 L 63.814 34.034 L 63.814 34.034 Q 63.814 34.214 63.688 34.34 L 63.688 34.34 L 63.688 34.34 Q 63.561 34.466 63.381 34.466 L 63.381 34.466 L 61.849 34.466 Z  M 70.995 38.431 L 70.995 38.431 Q 69.391 38.431 68.4 37.899 L 68.4 37.899 L 68.4 37.899 Q 67.409 37.368 66.994 36.683 L 66.994 36.683 L 66.994 36.683 Q 66.58 35.998 66.58 35.512 L 66.58 35.512 L 66.58 35.512 Q 66.58 35.332 66.706 35.214 L 66.706 35.214 L 66.706 35.214 Q 66.832 35.097 67.012 35.097 L 67.012 35.097 L 68.616 35.097 L 68.616 35.097 Q 68.778 35.097 68.896 35.178 L 68.896 35.178 L 68.896 35.178 Q 69.013 35.259 69.085 35.476 L 69.085 35.476 L 69.085 35.476 Q 69.283 35.944 69.68 36.278 L 69.68 36.278 L 69.68 36.278 Q 70.076 36.611 70.905 36.611 L 70.905 36.611 L 70.905 36.611 Q 71.986 36.611 72.491 36.133 L 72.491 36.133 L 72.491 36.133 Q 72.995 35.656 72.995 34.466 L 72.995 34.466 L 72.995 33.241 L 72.995 33.241 Q 72.022 34.394 70.238 34.394 L 70.238 34.394 L 70.238 34.394 Q 68.364 34.394 67.418 33.259 L 67.418 33.259 L 67.418 33.259 Q 66.472 32.124 66.4 30.159 L 66.4 30.159 L 66.382 29.673 L 66.4 29.186 L 66.4 29.186 Q 66.472 27.258 67.427 26.087 L 67.427 26.087 L 67.427 26.087 Q 68.382 24.915 70.238 24.915 L 70.238 24.915 L 70.238 24.915 Q 71.193 24.915 71.914 25.276 L 71.914 25.276 L 71.914 25.276 Q 72.635 25.636 73.104 26.249 L 73.104 26.249 L 73.104 25.546 L 73.104 25.546 Q 73.104 25.348 73.239 25.222 L 73.239 25.222 L 73.239 25.222 Q 73.374 25.096 73.554 25.096 L 73.554 25.096 L 75.032 25.096 L 75.032 25.096 Q 75.212 25.096 75.338 25.222 L 75.338 25.222 L 75.338 25.222 Q 75.464 25.348 75.464 25.546 L 75.464 25.546 L 75.482 34.232 L 75.482 34.232 Q 75.482 36.233 74.365 37.332 L 74.365 37.332 L 74.365 37.332 Q 73.248 38.431 70.995 38.431 L 70.995 38.431 Z  M 70.923 32.484 L 70.923 32.484 Q 71.932 32.484 72.437 31.835 L 72.437 31.835 L 72.437 31.835 Q 72.941 31.187 72.995 30.25 L 72.995 30.25 L 72.995 30.25 Q 73.013 30.105 73.013 29.673 L 73.013 29.673 L 73.013 29.673 Q 73.013 29.24 72.995 29.096 L 72.995 29.096 L 72.995 29.096 Q 72.941 28.159 72.437 27.51 L 72.437 27.51 L 72.437 27.51 Q 71.932 26.862 70.923 26.862 L 70.923 26.862 L 70.923 26.862 Q 68.977 26.862 68.869 29.24 L 68.869 29.24 L 68.851 29.673 L 68.851 29.673 Q 68.851 32.484 70.923 32.484 L 70.923 32.484 Z  M 78.789 23.564 L 78.789 23.564 Q 78.609 23.564 78.483 23.438 L 78.483 23.438 L 78.483 23.438 Q 78.357 23.311 78.357 23.131 L 78.357 23.131 L 78.357 21.816 L 78.357 21.816 Q 78.357 21.617 78.483 21.491 L 78.483 21.491 L 78.483 21.491 Q 78.609 21.365 78.789 21.365 L 78.789 21.365 L 80.447 21.365 L 80.447 21.365 Q 80.645 21.365 80.771 21.491 L 80.771 21.491 L 80.771 21.491 Q 80.898 21.617 80.898 21.816 L 80.898 21.816 L 80.898 23.131 L 80.898 23.131 Q 80.898 23.311 80.762 23.438 L 80.762 23.438 L 80.762 23.438 Q 80.627 23.564 80.447 23.564 L 80.447 23.564 L 78.789 23.564 Z  M 78.861 34.466 L 78.861 34.466 Q 78.681 34.466 78.555 34.34 L 78.555 34.34 L 78.555 34.34 Q 78.429 34.214 78.429 34.034 L 78.429 34.034 L 78.429 25.528 L 78.429 25.528 Q 78.429 25.33 78.555 25.213 L 78.555 25.213 L 78.555 25.213 Q 78.681 25.096 78.861 25.096 L 78.861 25.096 L 80.393 25.096 L 80.393 25.096 Q 80.573 25.096 80.699 25.222 L 80.699 25.222 L 80.699 25.222 Q 80.825 25.348 80.825 25.528 L 80.825 25.528 L 80.825 34.034 L 80.825 34.034 Q 80.825 34.214 80.699 34.34 L 80.699 34.34 L 80.699 34.34 Q 80.573 34.466 80.393 34.466 L 80.393 34.466 L 78.861 34.466 Z  M 88.025 34.466 L 88.025 34.466 Q 86.385 34.466 85.556 33.61 L 85.556 33.61 L 85.556 33.61 Q 84.727 32.754 84.727 31.097 L 84.727 31.097 L 84.727 27.024 L 83.303 27.024 L 83.303 27.024 Q 83.123 27.024 82.997 26.898 L 82.997 26.898 L 82.997 26.898 Q 82.871 26.772 82.871 26.591 L 82.871 26.591 L 82.871 25.528 L 82.871 25.528 Q 82.871 25.348 82.997 25.222 L 82.997 25.222 L 82.997 25.222 Q 83.123 25.096 83.303 25.096 L 83.303 25.096 L 84.727 25.096 L 84.727 22.104 L 84.727 22.104 Q 84.727 21.906 84.853 21.789 L 84.853 21.789 L 84.853 21.789 Q 84.979 21.672 85.159 21.672 L 85.159 21.672 L 86.655 21.672 L 86.655 21.672 Q 86.853 21.672 86.971 21.789 L 86.971 21.789 L 86.971 21.789 Q 87.088 21.906 87.088 22.104 L 87.088 22.104 L 87.088 25.096 L 89.34 25.096 L 89.34 25.096 Q 89.521 25.096 89.647 25.222 L 89.647 25.222 L 89.647 25.222 Q 89.773 25.348 89.773 25.528 L 89.773 25.528 L 89.773 26.591 L 89.773 26.591 Q 89.773 26.772 89.647 26.898 L 89.647 26.898 L 89.647 26.898 Q 89.521 27.024 89.34 27.024 L 89.34 27.024 L 87.088 27.024 L 87.088 30.898 L 87.088 30.898 Q 87.088 31.673 87.358 32.07 L 87.358 32.07 L 87.358 32.07 Q 87.628 32.466 88.241 32.466 L 88.241 32.466 L 89.503 32.466 L 89.503 32.466 Q 89.701 32.466 89.818 32.583 L 89.818 32.583 L 89.818 32.583 Q 89.935 32.7 89.935 32.899 L 89.935 32.899 L 89.935 34.034 L 89.935 34.034 Q 89.935 34.214 89.818 34.34 L 89.818 34.34 L 89.818 34.34 Q 89.701 34.466 89.503 34.466 L 89.503 34.466 L 88.025 34.466 Z  M 94.828 34.647 L 94.828 34.647 Q 93.909 34.647 93.143 34.277 L 93.143 34.277 L 93.143 34.277 Q 92.377 33.908 91.935 33.277 L 91.935 33.277 L 91.935 33.277 Q 91.494 32.646 91.494 31.889 L 91.494 31.889 L 91.494 31.889 Q 91.494 30.664 92.485 29.907 L 92.485 29.907 L 92.485 29.907 Q 93.476 29.15 95.206 28.88 L 95.206 28.88 L 97.675 28.52 L 97.675 28.141 L 97.675 28.141 Q 97.675 27.366 97.279 26.97 L 97.279 26.97 L 97.279 26.97 Q 96.882 26.573 96.017 26.573 L 96.017 26.573 L 96.017 26.573 Q 95.422 26.573 95.062 26.79 L 95.062 26.79 L 95.062 26.79 Q 94.702 27.006 94.476 27.231 L 94.476 27.231 L 94.476 27.231 Q 94.251 27.456 94.179 27.528 L 94.179 27.528 L 94.179 27.528 Q 94.107 27.745 93.909 27.745 L 93.909 27.745 L 92.503 27.745 L 92.503 27.745 Q 92.341 27.745 92.224 27.636 L 92.224 27.636 L 92.224 27.636 Q 92.107 27.528 92.107 27.348 L 92.107 27.348 L 92.107 27.348 Q 92.125 26.898 92.548 26.33 L 92.548 26.33 L 92.548 26.33 Q 92.972 25.762 93.855 25.339 L 93.855 25.339 L 93.855 25.339 Q 94.738 24.915 96.035 24.915 L 96.035 24.915 L 96.035 24.915 Q 98.162 24.915 99.135 25.87 L 99.135 25.87 L 99.135 25.87 Q 100.108 26.826 100.108 28.375 L 100.108 28.375 L 100.108 34.034 L 100.108 34.034 Q 100.108 34.214 99.991 34.34 L 99.991 34.34 L 99.991 34.34 Q 99.874 34.466 99.675 34.466 L 99.675 34.466 L 98.18 34.466 L 98.18 34.466 Q 97.999 34.466 97.873 34.34 L 97.873 34.34 L 97.873 34.34 Q 97.747 34.214 97.747 34.034 L 97.747 34.034 L 97.747 33.331 L 97.747 33.331 Q 97.351 33.908 96.63 34.277 L 96.63 34.277 L 96.63 34.277 Q 95.909 34.647 94.828 34.647 L 94.828 34.647 Z  M 95.44 32.917 L 95.44 32.917 Q 96.432 32.917 97.062 32.268 L 97.062 32.268 L 97.062 32.268 Q 97.693 31.619 97.693 30.394 L 97.693 30.394 L 97.693 30.033 L 95.891 30.322 L 95.891 30.322 Q 93.819 30.646 93.819 31.709 L 93.819 31.709 L 93.819 31.709 Q 93.819 32.286 94.296 32.601 L 94.296 32.601 L 94.296 32.601 Q 94.774 32.917 95.44 32.917 L 95.44 32.917 Z  M 103.433 34.466 L 103.433 34.466 Q 103.252 34.466 103.126 34.34 L 103.126 34.34 L 103.126 34.34 Q 103 34.214 103 34.034 L 103 34.034 L 103 22.104 L 103 22.104 Q 103 21.906 103.126 21.789 L 103.126 21.789 L 103.126 21.789 Q 103.252 21.672 103.433 21.672 L 103.433 21.672 L 104.946 21.672 L 104.946 21.672 Q 105.145 21.672 105.262 21.789 L 105.262 21.789 L 105.262 21.789 Q 105.379 21.906 105.379 22.104 L 105.379 22.104 L 105.379 34.034 L 105.379 34.034 Q 105.379 34.214 105.262 34.34 L 105.262 34.34 L 105.262 34.34 Q 105.145 34.466 104.946 34.466 L 104.946 34.466 L 103.433 34.466 Z " fill="rgb(0,0,0)"/><path d=" M 87.422 13.765 L 87.422 13.765 Q 87.242 13.765 87.116 13.639 L 87.116 13.639 L 87.116 13.639 Q 86.99 13.513 86.99 13.333 L 86.99 13.333 L 86.99 1.601 L 86.99 1.601 Q 86.99 1.403 87.107 1.277 L 87.107 1.277 L 87.107 1.277 Q 87.224 1.151 87.422 1.151 L 87.422 1.151 L 88.828 1.151 L 88.828 1.151 Q 89.17 1.151 89.35 1.457 L 89.35 1.457 L 94.504 9.458 L 94.504 1.601 L 94.504 1.601 Q 94.504 1.403 94.622 1.277 L 94.622 1.277 L 94.622 1.277 Q 94.739 1.151 94.937 1.151 L 94.937 1.151 L 96.487 1.151 L 96.487 1.151 Q 96.685 1.151 96.811 1.277 L 96.811 1.277 L 96.811 1.277 Q 96.937 1.403 96.937 1.601 L 96.937 1.601 L 96.937 13.315 L 96.937 13.315 Q 96.937 13.513 96.811 13.639 L 96.811 13.639 L 96.811 13.639 Q 96.685 13.765 96.505 13.765 L 96.505 13.765 L 95.081 13.765 L 95.081 13.765 Q 94.721 13.765 94.541 13.459 L 94.541 13.459 L 89.405 5.638 L 89.405 13.333 L 89.405 13.333 Q 89.405 13.513 89.287 13.639 L 89.287 13.639 L 89.287 13.639 Q 89.17 13.765 88.972 13.765 L 88.972 13.765 L 87.422 13.765 Z  M 104.137 13.946 L 104.137 13.946 Q 102.118 13.946 100.938 12.792 L 100.938 12.792 L 100.938 12.792 Q 99.758 11.639 99.685 9.512 L 99.685 9.512 L 99.667 9.062 L 99.667 9.062 Q 99.667 6.809 100.848 5.512 L 100.848 5.512 L 100.848 5.512 Q 102.028 4.214 104.119 4.214 L 104.119 4.214 L 104.119 4.214 Q 106.263 4.214 107.425 5.512 L 107.425 5.512 L 107.425 5.512 Q 108.588 6.809 108.588 8.972 L 108.588 8.972 L 108.588 9.35 L 108.588 9.35 Q 108.588 9.53 108.462 9.656 L 108.462 9.656 L 108.462 9.656 Q 108.336 9.783 108.137 9.783 L 108.137 9.783 L 102.154 9.783 L 102.154 9.927 L 102.154 9.927 Q 102.19 10.936 102.704 11.594 L 102.704 11.594 L 102.704 11.594 Q 103.218 12.252 104.119 12.252 L 104.119 12.252 L 104.119 12.252 Q 105.146 12.252 105.795 11.423 L 105.795 11.423 L 105.795 11.423 Q 105.957 11.224 106.047 11.179 L 106.047 11.179 L 106.047 11.179 Q 106.137 11.134 106.353 11.134 L 106.353 11.134 L 107.939 11.134 L 107.939 11.134 Q 108.101 11.134 108.218 11.224 L 108.218 11.224 L 108.218 11.224 Q 108.336 11.314 108.336 11.477 L 108.336 11.477 L 108.336 11.477 Q 108.336 11.909 107.822 12.495 L 107.822 12.495 L 107.822 12.495 Q 107.308 13.08 106.353 13.513 L 106.353 13.513 L 106.353 13.513 Q 105.398 13.946 104.137 13.946 L 104.137 13.946 Z  M 102.154 8.251 L 106.101 8.251 L 106.101 8.215 L 106.101 8.215 Q 106.101 7.152 105.569 6.512 L 105.569 6.512 L 105.569 6.512 Q 105.038 5.872 104.119 5.872 L 104.119 5.872 L 104.119 5.872 Q 103.2 5.872 102.677 6.512 L 102.677 6.512 L 102.677 6.512 Q 102.154 7.152 102.154 8.215 L 102.154 8.215 L 102.154 8.251 Z  M 115.301 17.73 L 115.301 17.73 Q 113.697 17.73 112.706 17.198 L 112.706 17.198 L 112.706 17.198 Q 111.714 16.667 111.3 15.982 L 111.3 15.982 L 111.3 15.982 Q 110.885 15.297 110.885 14.811 L 110.885 14.811 L 110.885 14.811 Q 110.885 14.63 111.012 14.513 L 111.012 14.513 L 111.012 14.513 Q 111.138 14.396 111.318 14.396 L 111.318 14.396 L 112.922 14.396 L 112.922 14.396 Q 113.084 14.396 113.201 14.477 L 113.201 14.477 L 113.201 14.477 Q 113.318 14.558 113.39 14.774 L 113.39 14.774 L 113.39 14.774 Q 113.589 15.243 113.985 15.576 L 113.985 15.576 L 113.985 15.576 Q 114.382 15.91 115.211 15.91 L 115.211 15.91 L 115.211 15.91 Q 116.292 15.91 116.796 15.432 L 116.796 15.432 L 116.796 15.432 Q 117.301 14.955 117.301 13.765 L 117.301 13.765 L 117.301 12.54 L 117.301 12.54 Q 116.328 13.693 114.544 13.693 L 114.544 13.693 L 114.544 13.693 Q 112.67 13.693 111.723 12.558 L 111.723 12.558 L 111.723 12.558 Q 110.777 11.423 110.705 9.458 L 110.705 9.458 L 110.687 8.972 L 110.705 8.485 L 110.705 8.485 Q 110.777 6.557 111.732 5.386 L 111.732 5.386 L 111.732 5.386 Q 112.688 4.214 114.544 4.214 L 114.544 4.214 L 114.544 4.214 Q 115.499 4.214 116.22 4.575 L 116.22 4.575 L 116.22 4.575 Q 116.941 4.935 117.409 5.548 L 117.409 5.548 L 117.409 4.845 L 117.409 4.845 Q 117.409 4.647 117.544 4.521 L 117.544 4.521 L 117.544 4.521 Q 117.679 4.394 117.86 4.394 L 117.86 4.394 L 119.337 4.394 L 119.337 4.394 Q 119.518 4.394 119.644 4.521 L 119.644 4.521 L 119.644 4.521 Q 119.77 4.647 119.77 4.845 L 119.77 4.845 L 119.788 13.531 L 119.788 13.531 Q 119.788 15.531 118.671 16.631 L 118.671 16.631 L 118.671 16.631 Q 117.553 17.73 115.301 17.73 L 115.301 17.73 Z  M 115.229 11.783 L 115.229 11.783 Q 116.238 11.783 116.742 11.134 L 116.742 11.134 L 116.742 11.134 Q 117.247 10.485 117.301 9.548 L 117.301 9.548 L 117.301 9.548 Q 117.319 9.404 117.319 8.972 L 117.319 8.972 L 117.319 8.972 Q 117.319 8.539 117.301 8.395 L 117.301 8.395 L 117.301 8.395 Q 117.247 7.458 116.742 6.809 L 116.742 6.809 L 116.742 6.809 Q 116.238 6.16 115.229 6.16 L 115.229 6.16 L 115.229 6.16 Q 113.282 6.16 113.174 8.539 L 113.174 8.539 L 113.156 8.972 L 113.156 8.972 Q 113.156 11.783 115.229 11.783 L 115.229 11.783 Z  M 126.897 13.946 L 126.897 13.946 Q 124.771 13.946 123.617 12.864 L 123.617 12.864 L 123.617 12.864 Q 122.464 11.783 122.374 9.873 L 122.374 9.873 L 122.356 9.08 L 122.374 8.287 L 122.374 8.287 Q 122.464 6.395 123.635 5.304 L 123.635 5.304 L 123.635 5.304 Q 124.807 4.214 126.897 4.214 L 126.897 4.214 L 126.897 4.214 Q 128.97 4.214 130.141 5.304 L 130.141 5.304 L 130.141 5.304 Q 131.312 6.395 131.402 8.287 L 131.402 8.287 L 131.402 8.287 Q 131.42 8.503 131.42 9.08 L 131.42 9.08 L 131.42 9.08 Q 131.42 9.656 131.402 9.873 L 131.402 9.873 L 131.402 9.873 Q 131.312 11.783 130.159 12.864 L 130.159 12.864 L 130.159 12.864 Q 129.006 13.946 126.897 13.946 L 126.897 13.946 Z  M 126.897 12.125 L 126.897 12.125 Q 127.852 12.125 128.366 11.531 L 128.366 11.531 L 128.366 11.531 Q 128.879 10.936 128.915 9.783 L 128.915 9.783 L 128.915 9.783 Q 128.933 9.602 128.933 9.08 L 128.933 9.08 L 128.933 9.08 Q 128.933 8.557 128.915 8.377 L 128.915 8.377 L 128.915 8.377 Q 128.879 7.224 128.357 6.62 L 128.357 6.62 L 128.357 6.62 Q 127.834 6.016 126.897 6.016 L 126.897 6.016 L 126.897 6.016 Q 125.942 6.016 125.419 6.62 L 125.419 6.62 L 125.419 6.62 Q 124.897 7.224 124.861 8.377 L 124.861 8.377 L 124.843 9.08 L 124.861 9.783 L 124.861 9.783 Q 124.897 10.936 125.419 11.531 L 125.419 11.531 L 125.419 11.531 Q 125.942 12.125 126.897 12.125 L 126.897 12.125 Z  M 138.043 13.946 L 138.043 13.946 Q 136.061 13.946 134.88 12.846 L 134.88 12.846 L 134.88 12.846 Q 133.7 11.747 133.628 9.801 L 133.628 9.801 L 133.61 9.08 L 133.628 8.359 L 133.628 8.359 Q 133.7 6.413 134.88 5.313 L 134.88 5.313 L 134.88 5.313 Q 136.061 4.214 138.043 4.214 L 138.043 4.214 L 138.043 4.214 Q 139.467 4.214 140.449 4.719 L 140.449 4.719 L 140.449 4.719 Q 141.431 5.223 141.909 5.953 L 141.909 5.953 L 141.909 5.953 Q 142.386 6.683 142.422 7.35 L 142.422 7.35 L 142.422 7.35 Q 142.44 7.53 142.305 7.656 L 142.305 7.656 L 142.305 7.656 Q 142.17 7.782 141.99 7.782 L 141.99 7.782 L 140.386 7.782 L 140.386 7.782 Q 140.188 7.782 140.097 7.701 L 140.097 7.701 L 140.097 7.701 Q 140.007 7.62 139.917 7.404 L 139.917 7.404 L 139.917 7.404 Q 139.647 6.719 139.205 6.413 L 139.205 6.413 L 139.205 6.413 Q 138.764 6.106 138.079 6.106 L 138.079 6.106 L 138.079 6.106 Q 137.16 6.106 136.646 6.683 L 136.646 6.683 L 136.646 6.683 Q 136.133 7.26 136.097 8.449 L 136.097 8.449 L 136.079 9.116 L 136.097 9.711 L 136.097 9.711 Q 136.205 12.053 138.079 12.053 L 138.079 12.053 L 138.079 12.053 Q 138.782 12.053 139.214 11.756 L 139.214 11.756 L 139.214 11.756 Q 139.647 11.459 139.917 10.756 L 139.917 10.756 L 139.917 10.756 Q 139.989 10.558 140.088 10.467 L 140.088 10.467 L 140.088 10.467 Q 140.188 10.377 140.386 10.377 L 140.386 10.377 L 141.99 10.377 L 141.99 10.377 Q 142.17 10.377 142.305 10.503 L 142.305 10.503 L 142.305 10.503 Q 142.44 10.63 142.422 10.81 L 142.422 10.81 L 142.422 10.81 Q 142.386 11.441 141.918 12.17 L 141.918 12.17 L 141.918 12.17 Q 141.449 12.9 140.476 13.423 L 140.476 13.423 L 140.476 13.423 Q 139.503 13.946 138.043 13.946 L 138.043 13.946 Z  M 145.224 2.863 L 145.224 2.863 Q 145.044 2.863 144.918 2.736 L 144.918 2.736 L 144.918 2.736 Q 144.792 2.61 144.792 2.43 L 144.792 2.43 L 144.792 1.115 L 144.792 1.115 Q 144.792 0.916 144.918 0.79 L 144.918 0.79 L 144.918 0.79 Q 145.044 0.664 145.224 0.664 L 145.224 0.664 L 146.882 0.664 L 146.882 0.664 Q 147.081 0.664 147.207 0.79 L 147.207 0.79 L 147.207 0.79 Q 147.333 0.916 147.333 1.115 L 147.333 1.115 L 147.333 2.43 L 147.333 2.43 Q 147.333 2.61 147.198 2.736 L 147.198 2.736 L 147.198 2.736 Q 147.063 2.863 146.882 2.863 L 146.882 2.863 L 145.224 2.863 Z  M 145.296 13.765 L 145.296 13.765 Q 145.116 13.765 144.99 13.639 L 144.99 13.639 L 144.99 13.639 Q 144.864 13.513 144.864 13.333 L 144.864 13.333 L 144.864 4.827 L 144.864 4.827 Q 144.864 4.629 144.99 4.511 L 144.99 4.511 L 144.99 4.511 Q 145.116 4.394 145.296 4.394 L 145.296 4.394 L 146.828 4.394 L 146.828 4.394 Q 147.008 4.394 147.135 4.521 L 147.135 4.521 L 147.135 4.521 Q 147.261 4.647 147.261 4.827 L 147.261 4.827 L 147.261 13.333 L 147.261 13.333 Q 147.261 13.513 147.135 13.639 L 147.135 13.639 L 147.135 13.639 Q 147.008 13.765 146.828 13.765 L 146.828 13.765 L 145.296 13.765 Z  M 154.37 13.946 L 154.37 13.946 Q 152.243 13.946 151.09 12.864 L 151.09 12.864 L 151.09 12.864 Q 149.937 11.783 149.847 9.873 L 149.847 9.873 L 149.829 9.08 L 149.847 8.287 L 149.847 8.287 Q 149.937 6.395 151.108 5.304 L 151.108 5.304 L 151.108 5.304 Q 152.28 4.214 154.37 4.214 L 154.37 4.214 L 154.37 4.214 Q 156.442 4.214 157.614 5.304 L 157.614 5.304 L 157.614 5.304 Q 158.785 6.395 158.875 8.287 L 158.875 8.287 L 158.875 8.287 Q 158.893 8.503 158.893 9.08 L 158.893 9.08 L 158.893 9.08 Q 158.893 9.656 158.875 9.873 L 158.875 9.873 L 158.875 9.873 Q 158.785 11.783 157.632 12.864 L 157.632 12.864 L 157.632 12.864 Q 156.478 13.946 154.37 13.946 L 154.37 13.946 Z  M 154.37 12.125 L 154.37 12.125 Q 155.325 12.125 155.839 11.531 L 155.839 11.531 L 155.839 11.531 Q 156.352 10.936 156.388 9.783 L 156.388 9.783 L 156.388 9.783 Q 156.406 9.602 156.406 9.08 L 156.406 9.08 L 156.406 9.08 Q 156.406 8.557 156.388 8.377 L 156.388 8.377 L 156.388 8.377 Q 156.352 7.224 155.83 6.62 L 155.83 6.62 L 155.83 6.62 Q 155.307 6.016 154.37 6.016 L 154.37 6.016 L 154.37 6.016 Q 153.415 6.016 152.892 6.62 L 152.892 6.62 L 152.892 6.62 Q 152.37 7.224 152.334 8.377 L 152.334 8.377 L 152.316 9.08 L 152.334 9.783 L 152.334 9.783 Q 152.37 10.936 152.892 11.531 L 152.892 11.531 L 152.892 11.531 Q 153.415 12.125 154.37 12.125 L 154.37 12.125 Z " fill="rgb(0,0,0)"/><g><path d="M 5.062 0 L 35.093 0.117 C 37.812 0.128 40.011 2.344 40 5.062 L 39.883 35.093 C 39.872 37.812 37.656 40.011 34.938 40 L 4.907 39.883 C 2.188 39.872 -0.011 37.656 0 34.938 L 0.117 4.907 C 0.128 2.188 2.344 -0.011 5.062 0 Z" style="stroke:none;fill:#171717;stroke-miterlimit:10;"/><path d=" M 34.569 22.832 L 34.507 29.685 C 34.487 31.912 32.663 33.703 30.437 33.684 L 30.437 33.684 L 23.583 33.622 L 23.583 33.622 L 23.627 28.73 L 27.563 28.765 L 27.563 28.765 C 28.7 28.775 29.631 27.861 29.641 26.724 L 29.676 22.788 L 34.569 22.832 L 34.569 22.832 L 34.569 22.832 Z " fill="rgb(61,244,61)"/><path d=" M 6.61 23.108 L 6.672 29.961 C 6.692 32.188 8.516 33.979 10.742 33.959 L 10.742 33.959 L 17.596 33.898 L 17.596 33.898 L 17.552 29.005 L 13.615 29.041 L 13.615 29.041 C 12.479 29.051 11.548 28.136 11.538 27 L 11.503 23.064 L 6.61 23.108 L 6.61 23.108 L 6.61 23.108 Z " fill="rgb(255,255,255)"/><path d=" M 34.569 16.892 L 34.507 10.039 C 34.487 7.812 32.663 6.021 30.436 6.041 L 30.436 6.041 L 23.583 6.102 L 23.583 6.102 L 23.627 10.995 L 27.563 10.959 L 27.563 10.959 C 28.7 10.949 29.631 11.864 29.641 13 L 29.676 16.936 L 34.569 16.892 L 34.569 16.892 L 34.569 16.892 Z " fill="rgb(61,244,61)"/><circle vector-effect="non-scaling-stroke" cx="9.084774319129714" cy="13.384497686576415" r="3.6534149534529785" fill="rgb(255,255,255)"/></g><path d=" M 115.541 34.412 L 115.541 34.412 Q 114.47 34.412 113.869 33.807 L 113.869 33.807 L 113.869 33.807 Q 113.268 33.201 113.238 32.11 L 113.238 32.11 L 113.228 31.709 L 113.238 31.309 L 113.238 31.309 Q 113.268 30.218 113.869 29.612 L 113.869 29.612 L 113.869 29.612 Q 114.47 29.006 115.541 29.006 L 115.541 29.006 L 115.541 29.006 Q 116.262 29.006 116.757 29.261 L 116.757 29.261 L 116.757 29.261 Q 117.253 29.517 117.498 29.897 L 117.498 29.897 L 117.498 29.897 Q 117.744 30.278 117.764 30.658 L 117.764 30.658 L 117.764 30.658 Q 117.774 30.748 117.698 30.818 L 117.698 30.818 L 117.698 30.818 Q 117.623 30.888 117.533 30.888 L 117.533 30.888 L 117.093 30.888 L 117.093 30.888 Q 116.993 30.888 116.943 30.843 L 116.943 30.843 L 116.943 30.843 Q 116.893 30.798 116.842 30.678 L 116.842 30.678 L 116.842 30.678 Q 116.662 30.187 116.347 29.982 L 116.347 29.982 L 116.347 29.982 Q 116.032 29.777 115.551 29.777 L 115.551 29.777 L 115.551 29.777 Q 114.92 29.777 114.55 30.167 L 114.55 30.167 L 114.55 30.167 Q 114.179 30.558 114.149 31.359 L 114.149 31.359 L 114.139 31.709 L 114.149 32.06 L 114.149 32.06 Q 114.179 32.861 114.55 33.251 L 114.55 33.251 L 114.55 33.251 Q 114.92 33.642 115.551 33.642 L 115.551 33.642 L 115.551 33.642 Q 116.042 33.642 116.352 33.436 L 116.352 33.436 L 116.352 33.436 Q 116.662 33.231 116.842 32.74 L 116.842 32.74 L 116.842 32.74 Q 116.893 32.62 116.943 32.575 L 116.943 32.575 L 116.943 32.575 Q 116.993 32.53 117.093 32.53 L 117.093 32.53 L 117.533 32.53 L 117.533 32.53 Q 117.623 32.53 117.698 32.6 L 117.698 32.6 L 117.698 32.6 Q 117.774 32.67 117.764 32.761 L 117.764 32.761 L 117.764 32.761 Q 117.744 33.131 117.498 33.511 L 117.498 33.511 L 117.498 33.511 Q 117.253 33.892 116.757 34.152 L 116.757 34.152 L 116.757 34.152 Q 116.262 34.412 115.541 34.412 L 115.541 34.412 Z  M 121.645 34.412 L 121.645 34.412 Q 120.544 34.412 119.948 33.792 L 119.948 33.792 L 119.948 33.792 Q 119.352 33.171 119.312 32.14 L 119.312 32.14 L 119.302 31.709 L 119.312 31.279 L 119.312 31.279 Q 119.352 30.248 119.958 29.627 L 119.958 29.627 L 119.958 29.627 Q 120.564 29.006 121.645 29.006 L 121.645 29.006 L 121.645 29.006 Q 122.726 29.006 123.332 29.627 L 123.332 29.627 L 123.332 29.627 Q 123.938 30.248 123.978 31.279 L 123.978 31.279 L 123.978 31.279 Q 123.998 31.499 123.998 31.709 L 123.998 31.709 L 123.998 31.709 Q 123.998 31.92 123.978 32.14 L 123.978 32.14 L 123.978 32.14 Q 123.938 33.171 123.342 33.792 L 123.342 33.792 L 123.342 33.792 Q 122.746 34.412 121.645 34.412 L 121.645 34.412 Z  M 121.645 33.662 L 121.645 33.662 Q 122.286 33.662 122.661 33.256 L 122.661 33.256 L 122.661 33.256 Q 123.037 32.851 123.067 32.09 L 123.067 32.09 L 123.067 32.09 Q 123.077 31.99 123.077 31.709 L 123.077 31.709 L 123.077 31.709 Q 123.077 31.429 123.067 31.329 L 123.067 31.329 L 123.067 31.329 Q 123.037 30.568 122.661 30.162 L 122.661 30.162 L 122.661 30.162 Q 122.286 29.757 121.645 29.757 L 121.645 29.757 L 121.645 29.757 Q 121.004 29.757 120.629 30.162 L 120.629 30.162 L 120.629 30.162 Q 120.253 30.568 120.223 31.329 L 120.223 31.329 L 120.213 31.709 L 120.223 32.09 L 120.223 32.09 Q 120.253 32.851 120.629 33.256 L 120.629 33.256 L 120.629 33.256 Q 121.004 33.662 121.645 33.662 L 121.645 33.662 Z  M 126.057 34.312 L 126.057 34.312 Q 125.957 34.312 125.892 34.247 L 125.892 34.247 L 125.892 34.247 Q 125.827 34.182 125.827 34.082 L 125.827 34.082 L 125.827 29.337 L 125.827 29.337 Q 125.827 29.236 125.892 29.171 L 125.892 29.171 L 125.892 29.171 Q 125.957 29.106 126.057 29.106 L 126.057 29.106 L 126.478 29.106 L 126.478 29.106 Q 126.578 29.106 126.638 29.171 L 126.638 29.171 L 126.638 29.171 Q 126.698 29.236 126.698 29.337 L 126.698 29.337 L 126.698 29.677 L 126.698 29.677 Q 127.238 29.006 128.16 29.006 L 128.16 29.006 L 128.16 29.006 Q 129.261 29.006 129.721 29.927 L 129.721 29.927 L 129.721 29.927 Q 129.962 29.507 130.407 29.256 L 130.407 29.256 L 130.407 29.256 Q 130.853 29.006 131.403 29.006 L 131.403 29.006 L 131.403 29.006 Q 132.224 29.006 132.745 29.567 L 132.745 29.567 L 132.745 29.567 Q 133.266 30.127 133.266 31.189 L 133.266 31.189 L 133.266 34.082 L 133.266 34.082 Q 133.266 34.182 133.2 34.247 L 133.2 34.247 L 133.2 34.247 Q 133.135 34.312 133.035 34.312 L 133.035 34.312 L 132.605 34.312 L 132.605 34.312 Q 132.505 34.312 132.44 34.247 L 132.44 34.247 L 132.44 34.247 Q 132.374 34.182 132.374 34.082 L 132.374 34.082 L 132.374 31.279 L 132.374 31.279 Q 132.374 30.478 132.044 30.132 L 132.044 30.132 L 132.044 30.132 Q 131.714 29.787 131.173 29.787 L 131.173 29.787 L 131.173 29.787 Q 130.693 29.787 130.347 30.142 L 130.347 30.142 L 130.347 30.142 Q 130.002 30.498 130.002 31.279 L 130.002 31.279 L 130.002 34.082 L 130.002 34.082 Q 130.002 34.182 129.937 34.247 L 129.937 34.247 L 129.937 34.247 Q 129.872 34.312 129.771 34.312 L 129.771 34.312 L 129.331 34.312 L 129.331 34.312 Q 129.231 34.312 129.166 34.247 L 129.166 34.247 L 129.166 34.247 Q 129.101 34.182 129.101 34.082 L 129.101 34.082 L 129.101 31.279 L 129.101 31.279 Q 129.101 30.488 128.755 30.137 L 128.755 30.137 L 128.755 30.137 Q 128.41 29.787 127.899 29.787 L 127.899 29.787 L 127.899 29.787 Q 127.419 29.787 127.073 30.137 L 127.073 30.137 L 127.073 30.137 Q 126.728 30.488 126.728 31.269 L 126.728 31.269 L 126.728 34.082 L 126.728 34.082 Q 126.728 34.182 126.663 34.247 L 126.663 34.247 L 126.663 34.247 Q 126.598 34.312 126.498 34.312 L 126.498 34.312 L 126.057 34.312 Z  M 110.548 34.312 L 110.548 34.312 Q 110.448 34.312 110.383 34.247 L 110.383 34.247 L 110.383 34.247 Q 110.318 34.182 110.318 34.082 L 110.318 34.082 L 110.318 33.391 L 110.318 33.391 Q 110.318 33.291 110.383 33.221 L 110.383 33.221 L 110.383 33.221 Q 110.448 33.151 110.548 33.151 L 110.548 33.151 L 111.239 33.151 L 111.239 33.151 Q 111.339 33.151 111.404 33.221 L 111.404 33.221 L 111.404 33.221 Q 111.469 33.291 111.469 33.391 L 111.469 33.391 L 111.469 34.082 L 111.469 34.082 Q 111.469 34.182 111.404 34.247 L 111.404 34.247 L 111.404 34.247 Q 111.339 34.312 111.239 34.312 L 111.239 34.312 L 110.548 34.312 Z " fill="rgb(0,0,0)"/></g></g></svg>