<svg xmlns="http://www.w3.org/2000/svg" xmlns:xlink="http://www.w3.org/1999/xlink" preserveAspectRatio="xMidYMid meet" viewBox="23.064 50.292 217.577 217.577" width="213.08" height="213.08" xmlns:v="https://vecta.io/nano"><style><![CDATA[.B{fill-opacity:0}.C{stroke:#fff}.D{stroke-width:.4}]]></style><defs><path d="M131.1 264.87c-58.84 0-106.54-47.7-106.54-106.54S72.26 51.8 131.1 51.8s106.54 47.7 106.54 106.54-47.7 106.54-106.54 106.54z" id="A"/><path d="M167.46 160.23l2.53-5.5 3.2-4.72 3.07-3 3.25-2.54 3.96-2.03 5.27-1.58 5.2-1.05 3.86-.53 3.7-.26 4.3.44 2.64.8 1.67 1.14 1.5 1.4.97 1.4.52 2.3.1 2.28-.22.92-27.17 15.45 28-13.97.76.8.93.86 1.12 1.47.8 1.5.44 1.17.3 1.38.13 1.43-.3 2-.4 1.38-.68 1.6-.85 1.5-1.08 1.6-.97 1.25-1.7 1.84-1.16 1.06-2.4 2.06-2.17 1.65-3.6 2.3-3.18 1.8-2.75 1.38-3.27 1.43-3.76 1.3-2.88.66-1.42.13-1.4.1-1.78-.14-1.36-.2-1.45-.33-1.25-.44-1.06-.44-2.35-1.36-1.38-1.04-1.67-1.53-1.1-1.28-1.34-1.67-1.4-2.28-.8-1.52-.4-1.08-.33-1.25-.16-1.12-.15-1.7.06-1.74.2-2.04.5-2.1.4-1.38z" id="B"/><path d="M146.47 234.26l-5.55-3.7-3.16-4.9-1.68-4.07-1.38-4.14-1.15-4.3-.45-5.5-.47-5.3.3-4.15.68-4.1 1.68-3.43 1.32-2.4 1.46-1.4 1.7-1.17 1.58-.65 2.34-.04 2.25.4.86.4 9 34.5-7.4-35 .87-1.2 1.2-.8 1.68-1.06 1.45-.28 1.4-.2h1.33l1.7.43 1.72.97 1.62.94 1 1 1.3 1.15 1.35 1.4 1.02 1.2 1.45 2.04.8 1.35 1.52 2.78 1.16 2.47 1.94 3.83 1.36 4 .52 2.9.63 3.32.14 3.86.04 2.95-.16 1.43-.2 1.37-.5 1.7-.47 1.3-.63 1.35-.7 1.14-.65.94-1.82 2-.95 1.4-1.33 1.32-1.38 1.15-1.83 1.3-2.18.82-2 .28-1.67.2-1.3.14-1.48.01-1.62-.03-1.6-.17-1.7-.27-2.55-.75-2.4-.76z" id="C"/><path d="M96.26 135.4l4.26-10.66 4.92-9.24 5.35-9.23 4.78-7.1 6.77-6.77 5.13-3.5 7.66-2.36 8.95-1.18 9.53.9 8.1 4.44 6.55 5.14 3.63 6.14 1.14 6.63-.25 7.82-1.35 6.9-3.28 6.56-3.24 3.68-6.13 4.5-5.37 4.12-8.17 5.82-8 6.26-4.1 5.74-5.57 9.96-4.6 11.22-5.27 8.13-6.12 5.4-6.7 4.7-11.13 3.74-11.13 1.8-10.23.54-8.36-.93-5.32-1.57-4.15-2.73-3.73-5-1.9-13.7 1.9-8.04 4.18-9.5 4.7-6.75 7.4-7.84 9.75-6.5 6.55-3.35 6.37-2.28 6.5-1.93z" id="D"/><path d="M118.83 101.15l9.36 1.73 10.85 3.45 9.6 4.92 10.1 7.15 9.12 7.4" id="E"/><path d="M107.24 117.9l13.07.98 10.35 3.45 10.35 7.9 9.6 10.35" id="F"/><path d="M97.88 139.35h5.67l4.43 1.23 8.38 4.2 5.67 3.7 3.45 3.45 5.92 6.4" id="G"/><path d="M68.06 151.92l8.13 1.23 10.1 2.7 9.12 3.7 7.9 5.67 5.42 5.67 2.7 4.43 5.43 10.1" id="H"/><path d="M54.75 167.94l14.3 3.2 7.4 2.96 8.87 4.68 7.4 6.66 3.95 4.43 6.9 8.63" id="I"/><path d="M129.18 92.77l-.5 9.6-3.7 8.38-5.67 11.58-11.83 18.24-17.5 17-9.36 8.62-8.88 6.4-9.1 7.4-3.7 3.2-7.4 5.17 1.24-.98" id="J"/><path d="M58.2 199.73l4.2-2.22 18.73-14.54 10.35-9.12 8.38-8.62 11.1-12.82 7.64-10.6 7.9-10.35 6.4-11.58 2.72-5.9 3.7-8.14 2.96-10.6 1.23-7.64" id="K"/><path d="M155.55 89.07l-3.7 10.85-4.2 13.3-4.68 13.06-7.64 11.83-6.65 8.62-4.2 5.18-6.9 10.6-4.92 6.16-3.7 4.2-6.9 7.64-6.9 5.17-21.2 17.5" id="L"/><path d="M162.7 94.25l-2.22 11.34-1 6.65-1.97 7.15-3.94 10.84-3.45 9.6" id="M"/></defs><use xlink:href="#A" fill="#c27344"/><use xlink:href="#A" stroke="#c27344" stroke-width="3" class="B"/><use xlink:href="#B" fill="#fff"/><use xlink:href="#B" stroke-width=".05" class="B C"/><use xlink:href="#C" fill="#fff"/><use xlink:href="#C" stroke-width=".05" class="B C"/><use xlink:href="#D" class="B"/><use xlink:href="#D" stroke-width="1.9" class="B C"/><use xlink:href="#E" class="B"/><use xlink:href="#E" class="B C D"/><use xlink:href="#F" class="B"/><use xlink:href="#F" class="B C D"/><use xlink:href="#G" class="B"/><use xlink:href="#G" class="B C D"/><use xlink:href="#H" class="B"/><use xlink:href="#H" class="B C D"/><use xlink:href="#I" class="B"/><use xlink:href="#I" class="B C D"/><use xlink:href="#J" class="B"/><use xlink:href="#J" class="B C D"/><use xlink:href="#K" class="B"/><use xlink:href="#K" class="B C D"/><use xlink:href="#L" class="B"/><use xlink:href="#L" class="B C D"/><use xlink:href="#M" class="B"/><use xlink:href="#M" class="B C D"/></svg>