<svg xmlns="http://www.w3.org/2000/svg" xmlns:xlink="http://www.w3.org/1999/xlink" preserveAspectRatio="xMidYMid meet" viewBox="23.064 53.16 217.577 217.577" width="213.08" height="213.08" xmlns:v="https://vecta.io/nano"><style><![CDATA[.B{fill-opacity:0}.C{fill:#fff}.D{stroke:#fff}.E{stroke-width:.05}]]></style><defs><path d="M131.1 267.74c-58.84 0-106.54-47.7-106.54-106.54S72.26 54.66 131.1 54.66s106.54 47.7 106.54 106.54-47.7 106.54-106.54 106.54z" id="A"/><path d="M168.2 177.95l-1.33 11.02-1.4 4.98c-.5 2-1.28 3.83-2.2 5.6-.9 1.4-2.6 2.54-3.9 3.82l-6.88 5-5.3 3.36-4 1.95-8.2.08-4.62-.16c-3.85.2-8.1.01-12.17 0-4.36-1.76-8.5-4.93-12.76-7.42l-7.5-6.18-2.33-5.15-1.87-8.54-1.12-11.63.94-4.84 1.67-2.9 1.7-2.03 1.96-4.45 3.67-9.15 1.95-2.97 3.2-2.73 4.14-1.96 1.88-1.4 1-1.26.47-1 .55-2.03.7-1.57 2.1-.47 2.2.8 2.35 1.56 2.1.47 2.26-.3 1.83.02c.4.12.3.25.36.37.05.01.3.04.73.1l.3.24.15-.42.63.02.37-.34 1.1-.03 1.46.2 1.16-.02 1.24.04 1.07-.24.87-.4 1.5-1.02.6-.24.8-.3 1.1-.33 1.28.05 1 .7.5 1.24.33 2.4.68.83 1.43 1.6 3.23 1.6 1.98.94 2 1.44 1.28 1.33 1.48 2.55.48.95 1.37 2.75 1.66 4.07.56 1.5 1.77 4.03 1.96 2.92 1.55 2.6.3.83.63 1.46-.06 6.1z" id="B"/><path d="M94.73 164.44h.16l.76-1 1.92-5.2 1.6-4.7-8.28-6.33 1.5-2.3 1-3.52-.04-5.76-.96-5.47 3.94-2.26 5.67-4.43 6.06-6.63 3.35-6.62 1.25-6.7c-.17-1.68-.1-2.92-.67-5.36-.03-.18-.23-1.04-.58-2.6l-1.93 3.52-2.68 4.36-3.44 3.93-3 3.27-3.6 2.93-3.44 2.26-2.4 1.26.15-4.77 1.84-9.97 3.1-7.96L99 87.2l-3.35 2.5-5.03 3.2-2.5 1.93-3.6 3.6-3 3.85-2.77 3.94-2.85 6.03-2.26 7.96-.67 5.45-.17 4.27.67 6.2 1 3.94 1.34 4.1 1.42 2.43 1.6 1.5 1.42 1.1 1.68 2.93 1 2 2.43 4.6 2.5 3.2 1.68 2 1.57 1.65 1 .97c.57-.1.48-.34.77.25l1.86-2.37z" id="C"/><path d="M92.76 167.25l-3.93-1.27-3.08-1.02-3.14-.82-1.75-.38-1.4-.26-.95.16-.8.32-.6.5-1.1.95-.57.44-.38.73.06.8.23.95.76 1.2 1.08.98 1.08.86 1.7 1.3 2.13 1.14 1.78.86 1.9.86 3.9 1.6-3.72.53-4.03.6-3.4.38-2.35.38-1.17.57-.9.92-.5 1.27-.38 1.34.03 1.23.7 1.08 1.3.8 1.6.54 1.94.47 1.84.23 2.3.1 2.64-.03 2.16-.2 2.38-.22.54-.13-.95.35-1.5.5-2.92 1.33-2.7 1.84-1.37 1.1-1.36 1.27-1.5 1.72-1.14 1.7-.63 1.37-.2 1.68.6 1.27.76.86.73.47.86.48.95.25.98-.2 1.4-.5 1.2-.57 1.46-.9 1.7-1.08 1.18-.66 1.43-.64 2.03-.82 1.52-.42.67-.2-1.05.64-1.02.8-1.65 1.53-.73 1.04-1.04 1.62-.9 1.84-.57 1.53-.23.92.1 1.14.28 1.37 1.02.9.83.3.4.04.8.38.9.25 1.3-.4 1.15-.83 1.5-1.52 1.3-.9 2.73-1.65 1.78-.8.38-.22-1.05-.82-1.52-1.24-1.05-1.18-1.1-1.42-.8-1.27-1.58-3.7-.73-2.4-1.08-4.6-.16-1.46-1-6.83-.22-3.27.13-4.32.16-1 .16-.26-.04-.28.1-1.08.7-1.53.47-.95.2-.38z" id="D"/><path d="M66.15 157.17l.37.88.86 1.46.94 1.57.86 1.1.92 1.25.65.7.54.4.8.4.65.08h.9l.85-.42.86-.86.48-1.18.06-1.1-.48-1.78-.9-1-1.74-2.2-1.96-2.8-1.33-2-.8-1.25-.95-.9-.68-.44-.98-.24-1 .45-.68.68-.17.97.17 1.1.3 1.4.5 1.48.3.86.36.76.3.67z" id="E"/><path d="M62.36 136.7l-.1 1.02-.17 1.02.02 1.8.04 1.55.07 1.24.13 1.55.1.9.13.6.3.55.37.54.44.24.6.26.67-.1.72-.26.46-.54.26-.48.18-.55.04-.48.04-.4-.2-.26-.4-1.22-.52-2.03-.28-1.33-.1-.74-.48-1.63-.52-1.83-.44-1.1-.2-.3-.27-.15-.37.4-.26.77-.13.6-.13.37z" id="F"/><path d="M54.56 156.65l-.28.28-.24.96-.13.94-.1 1.26-.07 1.55.03 1.02.04 1 .17 1.26.3 1.3.32 1.3.3.44.24.63.32.52.53.3.72.1.56-.16.2-.15.78-.46.35-.5.13-.35.15-.54-.15-.92-.4-.58-1.05-2.12-.65-1.87-.74-2.6-.48-1.53-.33-.9-.17-.3-.3.1z" id="G"/><path d="M62.05 178.58l-.96-.92-1.07-.8-1.07-.92-.54-.78-.5-1.03-.42-.93-.06-.65.01-1.05.5-.54.52-.3c.36-.46.7-.43 1.07-.4.1.03.5.2 1.27.54l1.95 1.4 1.93 1.38 2 1.2 2.52 1.4 1.83 1.04.42.1.76.8.33.33.26.6v.47l-.18.7-.3.6-.37.56-.35.32-.63.32-.75.2-.9-.03-.7-.1-1.45-.52-1.57-.86-1.57-.9-1.1-.62-.87-.63z" id="H"/><path d="M76.24 212.22l1.87-4.17c.32-.5.76-.76.64-1.96-.3-.94-.3-1.04-.63-1.6-.47-.94-.94-.92-1.4-1.32-.94-.65-1.47-.26-2.14-.2-1.3.73-1.57 1.25-2.17 1.84l-2.25 5.7-.76 3.36-.35 3.83.74 2.2 1.48 1.1 1.4-.32.78-1.08 1.67-4.52 1.13-2.86z" id="I"/><path d="M70.48 223.36l.63-.8.45-.23.6-.1.9.06.73.28.34.8.12.46.34.85.22.9.4 1.5.62 1.56.8 1.87.5 1.47.62 1.14.3.62v.5l-.57.06-.97-.46-.85-.56-1.36-1.2-1.07-1.48-1.42-2.15-.63-1.4-.58-1.65-.2-1.22.1-.85z" id="J"/><path d="M96.27 228.26l.38-.4.48-.37.6-.4h.94l1.83.55 1.83.56 1.24.37 1.68.5 1.3.26 1.53.38 1.24.37.6.56-.2.3-.56.26-.67.2-.75.1-1.05.26-1.35.1-.93.04H103l-1.24-.1-1.5-.15-1.16-.22-1.46-.34-.94-.6-.6-.78v-1.02l.15-.4z" id="K"/><path d="M91.33 219.85l-.15-1-.03-1v-.72l.15-.74v-.5l.03-.45-.18-.78-.64-.94-.52-.56-.94-.38-.6-.37h-.6l-.67.1-.6.38-.9.56-.67 1-.2.7-.22 1.3.04 1.42.18 1.68.27 1.46.37 1.42.7 1.58.97 1.38 1.35 1.66 1.46.8 1.16.75 1.38.37.98.1.82-.22.4-.52.34-.64.22-.66-.22-1.1-.68-1-1.2-1.5-.86-1.15-.5-.87-.34-.82-.15-.78z" id="L"/><path d="M167.48 165.34h-.17l-.75-1-1.93-5.2-1.6-4.7 8.28-6.33-1.5-2.3-1-3.52.05-5.76.96-5.47-3.94-2.26-5.68-4.43-6.05-6.63-3.35-6.62-1.26-6.7c.17-1.7.12-2.92.67-5.36l.6-2.6 1.92 3.52 2.68 4.35 3.44 3.94 3.02 3.27 3.6 2.93 3.43 2.26 2.4 1.26-.14-4.78-1.85-9.97-3.1-7.96-3-7.2 3.35 2.5 5.03 3.2 2.5 1.92 3.6 3.6 3.02 3.85 2.76 3.94 2.85 6.03 2.26 7.96.67 5.45.17 4.27-.67 6.2-1 3.94-1.35 4.1-1.42 2.43-1.6 1.5-1.43 1.1-1.67 2.93-1 2-2.43 4.6-2.5 3.18-1.68 2.02-1.56 1.65-1 .97c-.58-.1-.5-.34-.78.24l-1.85-2.36z" id="M"/><path d="M169.44 168.15l3.94-1.27 3.08-1.02 3.14-.82 1.75-.38 1.4-.26.95.16.8.32.6.5 1.1.95.57.44.4.73-.07.8-.22.95-.76 1.2-1.08.98-1.08.86-1.72 1.3-2.12 1.14-1.78.86-1.9.86-3.9 1.58 3.7.54 4.04.6 3.4.38 2.35.38 1.18.57.9.92.5 1.27.38 1.33-.03 1.24-.7 1.08-1.3.8-1.58.54-1.94.47-1.84.22-2.32.1-2.64-.03-2.15-.2-2.4-.23-.53-.12.95.35 1.5.5 2.92 1.34 2.7 1.84 1.36 1.1 1.37 1.27 1.5 1.7 1.14 1.72.64 1.36.2 1.7-.6 1.27-.77.85-.73.48-.85.48-.95.25-1-.2-1.4-.5-1.2-.57-1.46-.9-1.72-1.08-1.17-.66-1.43-.64-2.03-.82-1.53-.42-.66-.2 1.04.64 1.02.8 1.65 1.52.73 1.05 1.05 1.62.9 1.84.57 1.53.22.92-.1 1.14-.3 1.37-1 .88-.83.32-.4.03-.8.38-.9.26-1.3-.4-1.14-.83-1.5-1.52-1.3-.9-2.73-1.65-1.78-.8-.38-.22 1.04-.82 1.53-1.24 1.05-1.18 1.1-1.43.8-1.27 1.6-3.68.73-2.4 1.08-4.6.16-1.46.98-6.82.22-3.27-.12-4.32-.16-1.02-.16-.25.03-.28-.1-1.08-.7-1.53-.48-.95-.2-.38z" id="N"/><path d="M196.06 158.07l-.37.88-.86 1.45-.95 1.57-.86 1.1-.92 1.24-.65.7-.53.42-.8.38-.65.1-.9-.03-.86-.4-.86-.86-.47-1.18-.06-1.1.47-1.78.9-1 1.75-2.2 1.95-2.8 1.34-2.02.8-1.24.94-.9.7-.44.97-.24 1 .44.68.7.18.97-.18 1.1-.3 1.4-.5 1.48-.3.86-.37.76-.3.67z" id="O"/><path d="M199.84 137.6l.1 1.02.18 1.02-.03 1.8-.04 1.55-.06 1.24-.13 1.55-.1.9-.13.6-.3.54-.37.55-.43.24-.6.26-.68-.1-.72-.26-.46-.54-.26-.48-.17-.55-.04-.48-.05-.4.2-.26.4-1.22.52-2.03.3-1.33.1-.74.47-1.63.53-1.83.43-1.1.2-.3.26-.15.37.4.26.77.13.6.13.37z" id="P"/><path d="M207.64 157.55l.3.28.23.96.14.94.1 1.26.07 1.55-.02 1.02-.05 1-.17 1.27-.28 1.3-.33 1.3-.28.44-.24.63-.33.52-.52.28-.72.1-.57-.15-.2-.15-.8-.46-.35-.5-.13-.35-.15-.54.15-.92.42-.6 1.04-2.1.66-1.87.74-2.62.48-1.52.32-.9.18-.3.3.1z" id="Q"/><path d="M200.16 179.47l.96-.9 1.06-.8 1.07-.92.55-.78.5-1.03.4-.93.07-.65-.02-1.05-.5-.54-.53-.3c-.35-.46-.7-.44-1.07-.4l-1.27.54-1.94 1.4-1.93 1.38-2.02 1.2-2.52 1.4-1.83 1.04-.4.1-.76.8-.33.33-.26.6.02.47.17.7.3.6.37.56.35.32.63.32.74.2.9-.04.7-.1 1.46-.52 1.57-.86 1.57-.9 1.1-.62.87-.64z" id="R"/><path d="M185.96 213.1l-1.87-4.16c-.3-.5-.75-.76-.64-1.96.3-.94.3-1.05.64-1.6.47-.94.93-.92 1.4-1.32.95-.65 1.48-.26 2.14-.2 1.3.72 1.57 1.25 2.17 1.84l2.25 5.7.77 3.36.34 3.82-.74 2.22-1.47 1.1-1.4-.32-.78-1.08-1.68-4.52-1.13-2.87z" id="S"/><path d="M191.72 224.26l-.62-.8-.46-.23-.58-.1-.9.05-.74.3-.34.8-.1.46-.34.85-.23.9-.4 1.5-.62 1.56-.8 1.87-.5 1.47-.63 1.14-.28.62v.5l.57.06.96-.46.85-.56 1.36-1.2 1.08-1.47 1.42-2.15.62-1.4.6-1.66.2-1.2-.1-.85z" id="T"/><path d="M165.93 229.16l-.37-.4-.5-.37-.6-.4h-.93l-1.83.55-1.84.56-1.23.37-1.7.5-1.3.26-1.53.37-1.23.38-.6.56.18.3.57.26.67.2.75.1 1.04.26 1.35.1.94.04h1.42l1.23-.1 1.5-.15 1.16-.23 1.46-.33.93-.6.6-.8v-1l-.15-.4z" id="U"/><path d="M170.87 220.74l.15-1 .04-1v-.7l-.15-.75v-.48l-.04-.45.2-.8.63-.93.53-.56.93-.38.6-.37h.6l.67.1.6.38.9.56.67 1 .2.7.23 1.3-.04 1.42-.2 1.68-.26 1.46-.38 1.42-.7 1.57-.97 1.4-1.35 1.66-1.45.8-1.16.75-1.4.37-.97.1-.82-.22-.42-.53-.33-.63-.23-.66.23-1.1.67-1 1.2-1.5.86-1.16.48-.86.34-.82.15-.8z" id="V"/></defs><use xlink:href="#A" fill="#1cb6f1"/><use xlink:href="#A" stroke="#1cb6f1" stroke-width="3" class="B"/><use xlink:href="#B" class="C"/><use xlink:href="#B" class="B D E"/><use xlink:href="#C" class="C"/><use xlink:href="#C" class="B D E"/><use xlink:href="#D" class="C"/><use xlink:href="#D" class="B D E"/><use xlink:href="#E" class="C"/><use xlink:href="#E" class="B D E"/><use xlink:href="#F" class="C"/><use xlink:href="#F" class="B D E"/><use xlink:href="#G" class="C"/><use xlink:href="#G" class="B D E"/><use xlink:href="#H" class="C"/><use xlink:href="#H" class="B D E"/><use xlink:href="#I" class="C"/><use xlink:href="#I" class="B D E"/><use xlink:href="#J" class="C"/><use xlink:href="#J" class="B D E"/><use xlink:href="#K" class="C"/><use xlink:href="#K" class="B D E"/><use xlink:href="#L" class="C"/><use xlink:href="#L" class="B D E"/><use xlink:href="#M" class="C"/><use xlink:href="#M" class="B D E"/><use xlink:href="#N" class="C"/><use xlink:href="#N" class="B D E"/><use xlink:href="#O" class="C"/><use xlink:href="#O" class="B D E"/><use xlink:href="#P" class="C"/><use xlink:href="#P" class="B D E"/><use xlink:href="#Q" class="C"/><use xlink:href="#Q" class="B D E"/><use xlink:href="#R" class="C"/><use xlink:href="#R" class="B D E"/><use xlink:href="#S" class="C"/><use xlink:href="#S" class="B D E"/><use xlink:href="#T" class="C"/><use xlink:href="#T" class="B D E"/><use xlink:href="#U" class="C"/><use xlink:href="#U" class="B D E"/><use xlink:href="#V" class="C"/><use xlink:href="#V" class="B D E"/></svg>