<svg xmlns="http://www.w3.org/2000/svg" xmlns:xlink="http://www.w3.org/1999/xlink" preserveAspectRatio="xMidYMid meet" viewBox="23.064 53.117 217.577 217.577" width="213.08" height="213.08" xmlns:v="https://vecta.io/nano"><style><![CDATA[.B{fill-opacity:0}.C{stroke-width:.05}.D{fill:#f68d2f}.E{stroke:#f68d2f}.F{fill:#fefefe}.G{stroke:#fefefe}]]></style><defs><path d="M131.1 267.7c-58.84 0-106.54-47.7-106.54-106.53S72.26 54.62 131.1 54.62s106.54 47.7 106.54 106.54S189.94 267.7 131.1 267.7z" id="A"/><path d="M46.4 158.43l2.53-11.18 2.75-8.44c1.35-2.92 2.44-6.22 4.85-9.85L61.2 123c1.25-1.75 3.34-3.3 5.26-4.88l6.12-2.53c2.26-.4 4.52-.27 6.78.22 2.36.65 3.97 1.37 5.46 2.1 2.4 1.16 4.25 2.6 6.12 4l5.7 6.12c2.45 2.44 4.14 5.37 5.9 8.23l3.38 5.7 2.95 6.76 3.17 8.86 2.1 9.08.63 5.48v5.7l-.84 5.28-1.06 5.06-1.48 4.65-3.37 5.9-3.6 4-4.43 3.8-5.28 3.38-6.95 1.83c-3.23.7-5.5.23-7.6.7l-8.86-.84-8.24-4-6.33-4.43c-2.58-3.3-4.9-6.62-6.75-9.92l-3.17-8.02-1.05-5.9-.22-9 .85-11.9z" id="B"/><path d="M66.45 148.78l1.8-5.84 2.37-4.6 3.62-4.45 3.76-2.44 1.1-1.32.42-2.72c-.08-.62-.75-1.44-1.95-2.43l-1.67-.7h-1.8l-3.62 2.5-2.1 1.95-2.1 1.94-2.5 3.2-1.67 3.06-1.12 3.06-1.4 3.62-.97 3.9-.42 2.8v.97l1.25 1.25 1.53 1.12 2.44.28 2.16-1.4.5-1.74.34-2.02z" id="C"/><path d="M171.3 148.56l11.35 1.62 8.64 2.05c3.02 1.1 6.4 1.93 10.2 4.04l6.33 4.16c1.84 1.1 3.55 3.07 5.28 4.85l3.02 5.9c.57 2.22.64 4.5.33 6.78-.45 2.4-1.04 4.07-1.65 5.6-.96 2.48-2.24 4.44-3.5 6.43l-5.64 6.17c-2.23 2.65-5 4.56-7.72 6.56l-5.4 3.83-6.5 3.5-8.58 3.88-8.87 2.83-5.42 1.08-5.68.46-5.33-.4-5.13-.64-4.75-1.1-6.16-2.88-4.3-3.26-4.15-4.1-3.8-5-2.4-6.78c-.97-3.16-.67-5.46-1.32-7.53l.13-8.9 3.33-8.53 3.9-6.67c3.1-2.84 6.2-5.44 9.34-7.54l7.74-3.8 5.8-1.53 8.97-.95 11.9-.12z" id="D"/><path d="M182.55 167.76l5.98 1.33 4.77 1.98 4.73 3.25 2.73 3.55 1.4 1 2.74.2c.62-.13 1.38-.87 2.27-2.14l.56-1.72-.15-1.8-2.8-3.4-2.1-1.92-2.1-1.93-3.4-2.24-3.18-1.4-3.15-.87-3.72-1.1-3.96-.65-2.8-.2-.97.08-1.15 1.35-1 1.62-.08 2.45 1.57 2.04 1.77.34 2.04.2z" id="E"/><path d="M111.2 107.2c3.64-5.73 7.3-11.4 11.16-15.72 3.3-3.54 6.84-6.75 11.5-8.43 3-1.85 6.02-2.16 9.02-2.12 3.56.7 7 2.85 10.08 5 3.4 3.08 5.15 5.44 6.4 7.57 2.5 4.57 5 9.13 6.34 13.7l2.96 11.3c.7 4.4 1.38 10.1 2.06 16.16v5.96l-8.32-.7c-4.53-.03-9.28-.17-12.43.5-5.33.16-9.5 2.34-13.94 4.08l-7.3 4.8-7.16 6.34-5.58-13.44c-1-2.4-2.73-5.48-4.94-9.07l-7.34-9.9c1.84-5.73 4.43-11 7.46-16.03z" id="F"/><path d="M129.92 113l2.5-5.6 2.9-4.28 4.13-4 4.02-1.97 1.26-1.18.74-2.65c-.01-.63-.57-1.52-1.64-2.65l-1.58-.9-1.8-.22-3.9 2.06-4.6 3.37-2.87 2.9-2.02 2.84-1.47 2.9-1.82 3.42-1.43 3.76-.75 2.7-.1.97 1.1 1.4 1.4 1.3 2.4.57 2.3-1.13.7-1.67.58-1.96z" id="G"/></defs><use xlink:href="#A" class="D"/><use xlink:href="#A" stroke-width="3" class="B E"/><use xlink:href="#B" class="F"/><use xlink:href="#B" class="B C G"/><use xlink:href="#C" class="D"/><use xlink:href="#C" class="B C E"/><use xlink:href="#D" class="F"/><use xlink:href="#D" class="B C G"/><use xlink:href="#E" class="D"/><use xlink:href="#E" class="B C E"/><use xlink:href="#F" class="F"/><use xlink:href="#F" class="B C G"/><use xlink:href="#G" class="D"/><use xlink:href="#G" class="B C E"/></svg>