<svg xmlns="http://www.w3.org/2000/svg" xmlns:xlink="http://www.w3.org/1999/xlink" preserveAspectRatio="xMidYMid meet" viewBox="16.174 47.909 231.857 231.857" width="227.86" height="227.86" xmlns:v="https://vecta.io/nano"><defs><path d="M131.1 276.77c-62.92 0-113.93-51-113.93-113.93S68.18 48.9 131.1 48.9s113.93 51 113.93 113.93-51 113.93-113.93 113.93z" id="A"/><path d="M143.2 96.44l11.85-4 8.72-2.26 5.57.17 4.2 1.4 3.48 3.3.35 4-.7 2.8-2.96 2.44-5.05 2.62-3.66 2.26-2.1 2.8-1.4 5.93-1.04 4.88 1.04 7.5 3.84 5.05 5.22 7.32 5.76 12.38 2.43 8 2.27 14.12.7 9.93-.53 9.6-1.9 10.45-3.14 7.5-3.66 6.27-4.18 6.8-4 4-4.88 2.8-8.9 1.05-24.05-.35-7.66-.7-3.66-.87-2.97-1.92-3.83-4.18-8.2-12.2-3.14-8.7-2.1-7.84-.35-7.85.18-3.3-2.62-3.83-3.83-6.97-3.5-7.15-3.13-10.8-1.22-6.1.87-8.7 1.57-8.54 3.3-6.97 6.45-7.15 6.62-3.66 7.14-2.44-2.96-5.92-.87-4.36.7-2.96 3.83-2.8 7.67-2.27 8.2-1.22h12.37l3.66.53-.7.34-3.13.88h-4.18l-5.06.34-7.14.7-5.4 1.74-3.13 1.75.87 1.74 3.48.87 5.23.7 2.27-.18 4.88-1.74 8.2-3.48 5.92-2.62 2.1-.87z" id="B"/><path d="M95.2 173.73l1.3-8.2 2.7-9.24 3.3-8.45 2.96-5.5 2.53-3.83.8-1.4 1.13-3.22.26-5.32-.6-3.66-.78-.95-1.22-.6-.96.34-5.06 2.8-3.57 2.62-4.97 5.14-2.6 4.44-1.83 5.58-.52 5.84.6 5.75 1.04 5.3 1.66 4.88 1.74 3.66 2.1 4z" id="C"/><path d="M117.6 115.96l2.35-.8 2.6-.08 1.57.35.87 1.83.35 2.78v5.5l-.17 4.97-.8 4.88-1.57 3.83-.95 1.92-1.4 2.8-1.65 2.7-2.62 4.27-1.74 4.1-2.96 6.62-2.1 6.1-1.4 3.4-1.13 2.78-1.13.6-.96-.17-.6-.44-.35-1.74 1.57-8.36 2.1-6.2 2.96-8.02 3.05-5.66 2.53-4.88 1.74-3.92.52-3.23-.87-7.14-.43-5.05-.1-2 .7-1.74z" id="D"/></defs><use xlink:href="#A" fill="#6d351e"/><use xlink:href="#A" fill-opacity="0" stroke="#6d351e" stroke-width=".4"/><use xlink:href="#B" fill="#fff"/><use xlink:href="#B" fill-opacity="0" stroke="#fff" stroke-width=".05"/><use xlink:href="#C" fill="#6d351e"/><use xlink:href="#C" fill-opacity="0" stroke="#6d351e" stroke-width=".05"/><use xlink:href="#D" fill="#6d351e"/><use xlink:href="#D" fill-opacity="0" stroke="#6d351e" stroke-width=".05"/></svg>