<svg xmlns="http://www.w3.org/2000/svg" xmlns:xlink="http://www.w3.org/1999/xlink" preserveAspectRatio="xMidYMid meet" viewBox="23.064 53.117 217.577 217.577" width="213.08" height="213.08" xmlns:v="https://vecta.io/nano"><style><![CDATA[.B{fill-opacity:0}.C{fill:#4dc4d5}.D{stroke:#4dc4d5}.E{stroke-width:.05}]]></style><defs><path d="M131.1 267.7c-58.84 0-106.54-47.7-106.54-106.53S72.26 54.62 131.1 54.62s106.54 47.7 106.54 106.54S189.94 267.7 131.1 267.7z" id="A"/><path d="M112.4 88.4l-5.92.87c-3 .74-5.54 2.03-7.07 3.66l-5.3 4.36-4.53 4-5.77 2.7-5.74 1.3-7.14 1.75-5.75 5.4-3.5 6.62-3.66 7.5c-.87 1.24-2.8 2.3-5.45 3.24-2.15 1.22-2.58 1.44-5.27 4.04-1.45 1.78-2.5 3.96-2.5 7.22l.52 5.66 1.1 4.2c-1.07 1.45-.2 4.05.1 6.33.53 3.85 1.37 7.48 3.08 10.45 2.23 4.45 6.33 8.9 9.94 13.34l11.68 11.2L84.7 203.6l10.28 7.15-1.74 4-4 6.1c-1 1.63-1.6 3.26-1.4 4.88.12 3.57 1.56 5.28 3.14 6.8 3.25 1 6.5 1.7 9.76 1.22h64.48l5.4-2.1c1.68-.75 2.93-2.02 3.14-4.53.25-1.77.1-3.4-.52-4.88.02-4.15-4.42-7.67-6.63-11.5 5.03-2.96 10.3-5.55 14.45-10.25l15.35-13.45 10.63-10.63 4.88-7.5 2.62-6.27 1.25-5.94.14-3.82v-1.74l.22-4.33c.47-.93.7-4.15 1.18-5.96.37-2.1-.87-4.18-1.92-6.27l-2.1-2.96-4.94-2.23-4.47-2.83-1.6-2.93c.35-1.65-2.04-4.38-2.76-6.3-.77-2.06-3.2-5.1-5.4-8.02-.25-.16-1.47-1-3.66-2.5l-7.5-2.4-5.75-1.4-6.62-3.14-5.75-5.23c-1-1.62-4.74-3.25-7.67-4.88l-4-1.4h-6.62l-9.4 2.26-4 .35-6.65-.03-7.1-1.7-6.98-.87z" id="B"/><path d="M70.03 133.32l-1.18 1.18-1.26 1.33-1.02.87-1.26.94-2.83 1.5 43.4 44-35.84-49.83z" id="C"/><path d="M100.68 109.03l-1.26 1.02-1.18 1.03-1.25.78-1.18.7-.4.08-.78.3-1.42.95-1.33.3 27.5 66.18-18.7-71.37z" id="D"/><path d="M129.3 102.04l1.57.47 1.1.08h.87l1.5-.08 1.42.08 1.5-.08.78-.08 1.03-.24h.4l-5.27 80.33-4.87-80.48z" id="E"/><path d="M167.88 109.03l1.42 1.18 1.1.94 1.33.8 1.26.47.32.16.86.78 1.1.48 1.42.63-27.67 66.25 18.86-71.68z" id="F"/><path d="M198.7 133.24l1.1 1.18 1.03 1.34 1.65 1.25 1.8 1.1 1.8.95-43.7 44.48 36.3-50.3z" id="G"/></defs><use xlink:href="#A" class="C"/><use xlink:href="#A" stroke-width="3" class="B D"/><use xlink:href="#B" fill="#f9f9f9"/><use xlink:href="#B" stroke="#f9f9f9" class="B E"/><use xlink:href="#C" class="C"/><use xlink:href="#C" class="B D E"/><use xlink:href="#D" class="C"/><use xlink:href="#D" class="B D E"/><use xlink:href="#E" class="C"/><use xlink:href="#E" class="B D E"/><use xlink:href="#F" class="C"/><use xlink:href="#F" class="B D E"/><use xlink:href="#G" class="C"/><use xlink:href="#G" class="B D E"/></svg>