<svg xmlns="http://www.w3.org/2000/svg" xmlns:xlink="http://www.w3.org/1999/xlink" preserveAspectRatio="xMidYMid meet" viewBox="23.064 32.384 217.577 217.577" width="213.08" height="213.08" xmlns:v="https://vecta.io/nano"><style><![CDATA[.B{fill-opacity:0}.C{stroke-width:.05}.D{fill:#da4752}.E{stroke:#da4752}]]></style><defs><path d="M131.1 246.96c-58.84 0-106.54-47.7-106.54-106.54S72.26 33.88 131.1 33.88s106.54 47.7 106.54 106.54-47.7 106.54-106.54 106.54z" id="A"/><path d="M131.34 67.64l-4.04 12.18c-2.77 10.2-4.63 21.3-6.62 32.27-.5 3.96-.73 7.84-2 12.06L117 133.2l-.4 6.56-.56 9.7-.05 13.88 1.4 13.47 1.62 10.64 3.35 13.06 4.7 11.1 2 1.62-1.67-9.38-4.35-13.05-3.35-13.06-1.42-9.2-.5-16.22c-.08-5.78.4-10.16.85-14.6l1.23-11.84 3.53-16.77 3.68-12.73 2.94-8.57c1.9-3.53 3.45-7 5.07-10-1.37 3.15-2.55 6.9-3.65 10.86-.77 3.03-1.5 6.08-2 9.38l-2.5 14.7-2.68 22.12-1.52 8.7-.62 8.37.3 9.68.3 8.4.67 8.7 1.34 9.7 2.34 9.7 2.1 5.54.98 2.63 2.42-4.07 3.56-.75 4.17 2.45 6.2 5.07 5.7 2.52h3.68l-2.34-4c-.4-3.03-1.18-6.05-.83-9.07.43-6.4.93-12.73 1.9-18.6l1.26 11.92.67 9.38 1.34 10.7c2.72-.85 5.57-1.58 8.03-2.68l6.75-3.27c1.8-4.14 4.17-8.05 4.7-12.7l1.3-4.45c.77 1.94 1.05 4.2 1 6.7.02.27.08 1.58.2 3.94l-.2 2.76 5.36-4.7c2.12-2.43 3.27-4.47 4.02-6.36 1.54-3.1 2.17-5.94 2.62-8.76.9-3.7 1.36-7.8 1.42-12.33l-.36-17.4c-.7-5.8-1.55-11.58-3.06-17.36-1.17-4.86-3.16-10-5.13-15.12-2.3-3.95-4.5-7.9-7.86-11.85-3.3-4.37-7.2-8.65-12.15-12.75l-6.3-4.53-5.25-3.27-6.47-3.43-6.67-4.63-5.04-5.08-2-3.35-1.4-3.6z" id="B"/><path d="M142.63 107.2v-2.88l-.5-3.3-.82-2.57-1.24-4.43-1.96-4.32-.72-2.37-.82-1.65-.2 3.4v2.67l.3 3 .93 3.6 1.25 3.4 1.84 2.78 1.95 2.68z" id="C"/><path d="M156.84 93.86l2.2 2.33 2.54 2.7 3.2 3.28 1.96 2.54 1.82 2.26 1.53 2.2 1.82 2.62 1.17 2.4 1.1 2.33 1.02 2.4.5 1.82.65 2.2.44 2.25-2.26-3.35-4.66-5.97-2.84-3.86-2.62-3.64-2.4-3.64-2.4-4.07-1.97-3.86-.8-2.9z" id="D"/><path d="M162 124.87l1.38 3.64 1.9 5.24 1.3 4.3 1.67 4 1.46 4.08 1.53 3.5 1.1 2.1-.58-5.32-.73-7.13-.66-4.08-1.3-3.57-1.38-3.06-1.38-1.3-2.77-1.96-.8-.3-.73-.15z" id="E"/><path d="M147.23 124.87l-.07 4.6v4.8l.36 4.66.73 6.34.5 3.27.8 3.57.58-6.33.73-5.03.15-3.5-.08-3.35-.36-3.06-.58-2.4-1.1-1.9-1.68-1.68z" id="F"/><path d="M138.5 159.24l-.94-2.77-.73-4-.66-3.94-.58-3.78-.36-2.2-.6-3.2-.65-2.77-.73 1.53-.8 2.7-.44 2.54-.07 2.12.07 2.76.66 3.35 1.16 2.84 1.4 2.1 1.24 1.53 2.03 1.17z" id="G"/><path d="M160.2 171.54l.66-2.1.43-1.82.3-2.33.22-1.97.07-2.25-.14-1.9-.37-2.54-.43-3.06-.8-3.57-.8-1.9-.73 2.25-.44 2.77-.36 3.57v4.73l.43 3.06.66 2.98.58 2.04.73 2.04z" id="H"/><path d="M184.87 172.92l.88-4.66.72-8.44-.22-5.03-.65-5.16-1.6-4.6-1.75-2.84-2.04-1.75-1.82-.73 1.17 2.33.94 2.62.73 2.92.58 3.5.73 5.54.37 4.15.36 3.5.44 2.9.3 1.53.87 4.22z" id="I"/><path d="M166.82 197.4l1.38-1.68 1.3-1.96.8-3.64.15-3.8-.37-3.42-.73-4.52-.5-2.62-.36-1.45-.87 2.33-.5 3.27-.44 3.93-.07 3v10.92l.22-.36z" id="J"/><path d="M133.7 168.56l.5 3.2.65 3.28 1.3 3.34 1.75 4.37 1.53 3 1.6 3.06 1.24 2.33.87 1.9.6 1.38 1.23 3.06-3.2-3.42-3.93-4.3-2.84-4.44-2.2-3.8-1.1-5.16.08-2.2.36-2.33.8-2.04.73-1.23z" id="K"/><path d="M118.9 205.04l-3.1-6.96c-2.52-5.47-3.53-11.43-4.56-17.4-2.08-11.34-2.7-22.7-3.27-34.04l1.13-16.22a84.52 84.52 0 0 1 3.56-17.82l4.75-14.94 6.3-16.63 1.37-4.73-4.7 3.34-7.73 4.85-9.1 5.33c-3.68 1.83-6.64 4.2-9.3 6.8-4.12 4.1-6.94 8.22-9.82 12.33-2.88 5.46-5.53 11.68-7.9 18.16-1.52 4.84-2.83 9.7-3.84 14.53-1.1 3.87-1.78 9.77-2.64 14.78l-.87 14.3c.3 2.9-.34 5.82 1.08 8.72.15 2.3 2.22 4.57 3.5 6.85l6.1 6.58 2.65 2.43-2.96-5.24-.67-4.54.5-2.72c2.72 3.53 4.3 6.96 6.36 10.43.3.44 1.77 2.6 4.44 6.5l5.62 5.63c3.26 1.77 6.6 3.92 9.37 3.74l4.06.58c-.92-3.4-2.58-7.37-1.34-10.76l5.4 8.3 2.48-2.3c1.47 1.62 2.8 4.3 5.45 5.9.27.47 1.32 1.06 3.12 1.78l-5.43-7.57z" id="L"/><path d="M101.75 102.83l1.84-2.67 1.92-3.37 2.98-4.5c.9-1 1.63-2.2 2.8-2.8l-2.8.38c-1.05.22-2 .66-2.83 1.17-1.04.67-1.4 1.34-1.88 2l-1.44 2.7-1.44 2.98-2.12 2.4-2.3 2.4-.77 2.12-.1 1.73 1.64-.68 2-1.34 1.25-1.35 1.24-1.17z" id="M"/><path d="M101.36 145.73l.4-10.1 1.06-10.18.58-4.9 1.05-5.86 1.2-4.7c-1.53.84-2.23 2.15-3.3 3.25l-2.3 5.47-.96 5.58-.3 5.3.48 5.48.58 4.42 1.43 5.88.1.38z" id="N"/><path d="M88.13 141.4c.53-1.53.95-3 1.06-4.7.2-2 .5-3.9.27-6.17v-4.6l-.86-5.4-1.06-2.6-1.83 6.44-.1 5.3c-.22 1.53.1 3.07.38 4.6l.48 2.5 1.15 3.32.5 1.3z" id="O"/><path d="M77.93 142.74l-.1 11.9.48 7.5.67 6.15.7 6.88-2.43-5.05c-1.1-2.76-1.9-5.5-2.6-8.27l-.67-6.44v-3.94c.15-2.04.37-4.08.96-6.05.38-1.48.97-2.95 1.73-4.42.27-.78.84-1.4 1.4-2.05l-.15 3.78z" id="P"/><path d="M90.7 156.94c.7 2 1 3.62 1.33 5.25l.78 5.54 1.06 6.63.73 2.5 1.58 3.54.58 1.73.48 2.12-.1 2.84-1.05-.66-.84-1.06-.6-1.84c-.07-.95-1.1-2-1.76-3.03l-2.5-2.88-1.15-2.5-.48-4.23v-3.08l1.44-9.13.2-2.26.3.5z" id="Q"/></defs><use xlink:href="#A" class="D"/><use xlink:href="#A" stroke-width="3" class="B E"/><use xlink:href="#B" fill="#fefefe"/><use xlink:href="#B" stroke="#fefefe" class="B C"/><use xlink:href="#C" class="D"/><use xlink:href="#C" class="B C E"/><use xlink:href="#D" class="D"/><use xlink:href="#D" class="B C E"/><use xlink:href="#E" class="D"/><use xlink:href="#E" class="B C E"/><use xlink:href="#F" class="D"/><use xlink:href="#F" class="B C E"/><use xlink:href="#G" class="D"/><use xlink:href="#G" class="B C E"/><use xlink:href="#H" class="D"/><use xlink:href="#H" class="B C E"/><use xlink:href="#I" class="D"/><use xlink:href="#I" class="B C E"/><use xlink:href="#J" class="D"/><use xlink:href="#J" class="B C E"/><use xlink:href="#K" class="D"/><use xlink:href="#K" class="B C E"/><use xlink:href="#L" fill="#fefefe"/><use xlink:href="#L" stroke="#fefefe" class="B C"/><use xlink:href="#M" class="D"/><use xlink:href="#M" class="B C E"/><use xlink:href="#N" class="D"/><use xlink:href="#N" class="B C E"/><use xlink:href="#O" class="D"/><use xlink:href="#O" class="B C E"/><use xlink:href="#P" class="D"/><use xlink:href="#P" class="B C E"/><use xlink:href="#Q" class="D"/><use xlink:href="#Q" class="B C E"/></svg>