<svg xmlns="http://www.w3.org/2000/svg" xmlns:xlink="http://www.w3.org/1999/xlink" preserveAspectRatio="xMidYMid meet" viewBox="23.064 53.117 217.577 217.577" width="213.08" height="213.08" xmlns:v="https://vecta.io/nano"><defs><path d="M131.1 267.7c-58.84 0-106.54-47.7-106.54-106.53S72.26 54.62 131.1 54.62s106.54 47.7 106.54 106.54S189.94 267.7 131.1 267.7z" id="A"/><path d="M49.2 170.75l7.1-3.34-8.38-6.8c1.13-1.84 2.16-3.7 3.73-5.53 3.2-3.75 5.76-7.53 10.1-11.2 3.5-2.76 6.87-5.65 11.1-7.58 3.18-1.63 6.67-2.93 10.24-4.17 5.08-1.38 11.03-2.72 18.16-4.02 2.66-.8 5.55-1.33 7.86-2.57l4.4-5.52c2.54-2.13 4.88-4.3 8.02-6.3 2.75-1.23 4.56-2.7 9.9-3.27 1.96-.4 3.88-.1 5.77.6 1.24.63 2.28 1.4 2.43 2.8-.25 1.7-.82 3.4-1.85 5.12l-4.82 8.1c-.5 1.15-1.38 1.94-1.46 3.5 4.15 1.3 8.3 2.48 12.46 4.22 3.95 1.2 7.02 2.87 10.3 4.44 3.88 1.5 6.38 3 9.14 4.5 4.44 2.56 8.04 5.13 11.8 7.7l4.53 3.86c2-2.9 3.4-5.22 7.94-8.72 3-2.02 5.77-4.13 10.05-5.7 3.42-.8 6.45-1.88 11.05-1.87 1.8.08 4.94.1 5.52 1.45l-4.84 3.92c-2.05 1.66-4.1 4.1-6.13 6.35-2.3 3.54-3.47 5.94-4.3 8-.57 2.17-1.35 4.35-1.03 6.53.02 2.4 1.74 5.4 2.9 8.23l6.1 7.44 7.28 6.36c-1.28 2.07-1.1 1.5-4.44 3.16-2.55.7-5.1.6-7.66.28l-6.34-2.28c-2.43-1.75-5.3-3.4-6.77-5.23l-6.06-6.1-3.4-4.24c-1.32 2-2.9 3.84-4.77 5.52-2.62 2.24-5.4 4.08-8.18 5.94-.43.23-2.6 1.35-6.52 3.37l-7.23 3.2c-5.47 2.25-11 4.17-16.56 6.02l-7.15 2.1c-.13 1.5.6 2.54 1.74 3.4l5.04 3.64 4.06 3.6c-1.34 1.1-3.26 1.55-5.05 2.15-1.6.42-3.73.22-5.78.1-3.23-.95-5.9-2.33-7.93-4.15l-3.3-3.1-3.1-4.08c-2.04-.9-4.07-1.4-6.1-1.72l-12.82-1.5c-6.04-.44-12.16-1.3-18.45-3.16-4.76-1.83-9.32-4.08-13.54-7.02-3.43-2.95-6.67-5.87-9.08-8.6l-5.66-7.8z" id="B"/><path d="M83.78 160.42a6.57 6.57 0 0 1 0-13.14 6.57 6.57 0 0 1 0 13.14z" id="C"/><path d="M96.23 192.3l3.83-3.4 4.7-5.86 3.35-6.56c.95-2 1.8-4.4 2.1-6.86l.57-5.6c-.03-2.44-.06-4.87-.56-7.6-.46-2.84-1.17-5.76-2.34-8.83l-3.28-6.93-3.94-6.06-1.16-1.9 2.8 2.44 4.55 4.73 2.16 2.88 3.1 5.57 1.6 4.52 1.02 3.5.6 3.3.14 4.45-.3 4.3-1.02 4.45-1.2 3.87-2.24 3.64-1.9 2.56-2.57 2.85-4.05 3.08-4.1 2.75-1.9.73z" id="D"/></defs><use xlink:href="#A" fill="#28429d"/><use xlink:href="#A" fill-opacity="0" stroke="#28429d" stroke-width="3"/><use xlink:href="#B" fill="#c3ead8"/><use xlink:href="#B" fill-opacity="0" stroke="#c3ead8" stroke-width=".05"/><use xlink:href="#C" fill="#28429d"/><use xlink:href="#C" fill-opacity="0" stroke="#28429d" stroke-width=".05"/><use xlink:href="#D" fill="#28429d"/><use xlink:href="#D" fill-opacity="0" stroke="#28429d" stroke-width=".05"/></svg>