<svg xmlns="http://www.w3.org/2000/svg" xmlns:xlink="http://www.w3.org/1999/xlink" preserveAspectRatio="xMidYMid meet" viewBox="23.064 23.067 217.577 231.293" width="213.08" height="227.29" xmlns:v="https://vecta.io/nano"><style><![CDATA[.B{fill-opacity:0}.C{stroke:#fff}.D{stroke-width:.04}]]></style><defs><path d="M131.1 251.36c-58.84 0-106.54-47.7-106.54-106.54S72.26 38.28 131.1 38.28s106.54 47.7 106.54 106.54-47.7 106.54-106.54 106.54z" id="A"/><path d="M146.55 132.66l1.55-2.07 2.76-2.6 3.8-2.76 5.86-4.48 4.92-3.2 4.4-2.67 4.57-2.6 6.2-2.76 6.48-2.16 3.1-.43 2.24.17 1.13.78c-10 11.05-20.23 22.05-31.15 32.87.4.78-.16 2.4 1.9 1.73 10.54-10.73 20.86-21.6 30.7-32.8l.26 2.94c-.1 1.63-.28 3.42-.6 5.52-.1.47-.56 2.83-1.38 7.07l-2.6 6.56-6.56 13.97-3.8 6.73-2.6 4.14-2.76 3.2-3.8 3.36-4.5 3.28-6.47 2.33c-2.27.68-4.54 1.24-6.8.78l-5.18-1.56-3.97-2.24c-1.68-1.66-3-3.66-4.48-5.52-1.1-2.53-1.62-4.83-1.56-6.9l.35-6.2c1.12-3.46 3.08-7.58 4.3-9.32l3.63-5.18z" id="B"/><path d="M107.95 144.9l-1.33 1.76-2.35 2.18-3.2 2.3-4.98 3.75-4.16 2.67-3.7 2.22-3.87 2.15-5.23 2.27-5.44 1.74-2.6.32-1.87-.18-.92-.7c8.53-9.34 17.26-18.62 26.55-27.74-.32-.68.18-2.06-1.55-1.52-8.98 9.05-17.8 18.22-26.2 27.68-.01-.26-.15-2.28-.17-2.53.1-1.4.3-2.95.6-4.74l1.27-6.06 2.27-5.6 5.7-11.9 3.28-5.72 2.23-3.52 2.36-2.7 3.23-2.82 3.8-2.75 5.44-1.9c1.9-.55 3.8-1 5.7-.55.3.1 1.72.57 4.3 1.42l3.28 2c1.37 1.45 2.45 3.2 3.65 4.82.87 2.2 1.27 4.2 1.18 5.96l-.4 5.34c-1 2.95-2.7 6.46-3.76 7.94l-3.1 4.4z" id="C"/><path d="M124.02 97.04l-.78-1.77-.74-2.78-.54-3.55-.97-5.56-.47-4.47-.3-3.93-.2-4.03.16-5.22.6-5.2.64-2.3.76-1.5.8-.5c3.67 10.63 7.25 21.4 10.52 32.57.58-.01 1.4.92 1.58-.73-3.32-10.9-6.8-21.67-10.6-32.24l1.82.8c.94.62 1.96 1.35 3.1 2.28.26.22 1.53 1.33 3.82 3.33l3.15 4 6.42 9.23 2.9 4.9 1.7 3.18 1.1 2.98.9 3.76.65 4.2-.5 5.24c-.26 1.8-.6 3.56-1.53 4.97l-2.43 3.05-2.5 1.98c-1.48.6-3.06.84-4.6 1.23-1.82-.1-3.35-.5-4.56-1.25l-3.6-2.33c-1.74-1.94-3.62-4.68-4.3-6.12l-2.03-4.24z" id="D"/><path d="M141.63 50.36l-1.17-.62-1.57-1.27-1.8-1.84-2.86-2.82-2.15-2.44-1.83-2.2-1.82-2.32-2.12-3.26-1.88-3.48-.62-1.76-.23-1.33.2-.76c6.45 4.35 12.9 8.83 19.38 13.74.3-.34 1.12-.23.53-1.34-6.38-4.7-12.8-9.26-19.28-13.5.13-.06 1.18-.5 1.3-.55.76-.16 1.6-.3 2.62-.4l3.44-.15 3.37.62 7.32 1.94 3.62 1.3 2.26.95 1.84 1.18 2.07 1.76L154.4 34l1.96 3.46c.62 1.23 1.2 2.48 1.3 3.87v3.23l-.5 2.62c-.53 1.2-1.27 2.26-1.92 3.37-1 .98-2 1.6-2.96 1.84l-2.9.64c-1.74-.2-3.9-.78-4.88-1.26l-2.87-1.42z" id="E"/><path d="M123.64 217.04l-1.24-1.63-1.33-2.62-1.2-3.4-2.02-5.32-1.24-4.32-.96-3.8-.84-3.92-.55-5.13v-5.17l.5-2.33.74-1.56.9-.6c6.16 9.93 12.22 20 17.95 30.5.73-.08 1.87.72 1.88-.92-5.75-10.23-11.68-20.33-18-30.18.25.05 2.17.5 2.42.55a52.37 52.37 0 0 1 4.24 1.82c.36.18 2.12 1.1 5.3 2.76l4.54 3.5 9.42 8.2 4.36 4.4 2.62 2.9 1.8 2.77 1.67 3.56 1.42 4.03.14 5.2c-.06 1.8-.22 3.56-1.2 5.06-.18.22-1.05 1.33-2.62 3.3l-2.86 2.28c-1.77.8-3.72 1.23-5.6 1.82-2.32.15-4.3-.06-5.93-.62l-4.87-1.8c-2.46-1.67-5.23-4.1-6.3-5.42l-3.17-3.9z" id="F"/></defs><use xlink:href="#A" fill="#9a8e6c"/><use xlink:href="#A" stroke="#9a8e6c" stroke-width="3" class="B"/><use xlink:href="#B" fill="#fff"/><use xlink:href="#B" stroke-width=".05" class="B C"/><use xlink:href="#C" fill="#fff"/><use xlink:href="#C" class="B C D"/><use xlink:href="#D" fill="#fff"/><use xlink:href="#D" class="B C D"/><use xlink:href="#E" fill="#fff"/><use xlink:href="#E" stroke-width=".03" class="B C"/><use xlink:href="#F" fill="#fff"/><use xlink:href="#F" class="B C D"/></svg>