<?xml version="1.0" encoding="UTF-8" standalone="no"?><!-- Generator: Gravit.io --><svg xmlns="http://www.w3.org/2000/svg" xmlns:xlink="http://www.w3.org/1999/xlink" style="isolation:isolate" viewBox="0 0 300 253.222" width="300pt" height="253.222pt"><defs><clipPath id="_clipPath_Fp6QSDs9z6FhXB9UO0BK83aQJ2xhRrNM"><rect width="300" height="253.222"/></clipPath></defs><g clip-path="url(#_clipPath_Fp6QSDs9z6FhXB9UO0BK83aQJ2xhRrNM)"><rect width="300" height="253.222" style="fill:rgb(0,0,0)" fill-opacity="0"/><path d=" M 250.454 151.701 C 250.454 151.701 250.07 151.734 249.403 151.775 C 250.078 151.731 250.454 151.701 250.454 151.701 Z  M 0 187.989 C 0 187.989 1.669 187.037 4.134 185.669 C 1.828 186.968 0 187.989 0 187.989 Z  M 55.627 67.38 C 55.713 67.416 56.258 67.706 57.114 68.165 C 56.11 67.642 55.532 67.338 55.627 67.38 Z  M 269.242 15.792 C 269.242 15.792 267.151 18.055 264.371 21.029 C 267.136 18.035 269.242 15.792 269.242 15.792 Z  M 283.256 163.007 C 282.591 162.618 281.786 162.228 280.928 161.84 C 283.342 162.609 285.764 163.293 288.183 163.825 L 288.38 163.848 C 289.06 164.081 289.739 164.317 290.424 164.538 C 291.963 165.332 293.498 166.136 295.046 166.911 C 292.805 166.013 291.042 165.272 290.565 164.981 C 288.949 163.995 286.98 165.188 283.256 163.007 Z  M 191.175 169.313 C 188.174 173.987 184.635 178.179 180.106 181.202 C 175.58 184.226 166.583 191.293 166.583 191.293 C 166.583 191.293 179.453 173.47 184.615 165.502 C 186.965 161.874 188.275 159.099 189.015 157.143 C 189.767 156.76 190.339 156.545 190.676 156.436 L 194.524 162.013 C 194.132 163.446 193.2 166.158 191.175 169.313 Z  M 163.195 192.817 C 162.741 193.359 162.122 193.957 161.417 194.577 C 163.502 190.926 166.404 185.805 168.958 181.134 C 173.581 172.686 177.661 167.236 182.58 162.146 C 180.806 168.586 176.876 173.109 177.356 172.57 C 177.836 172.031 177.086 173.198 174.746 176.913 C 172.405 180.628 166.254 189.164 163.195 192.817 Z  M 161.461 148.852 C 162.002 147.593 165.568 147.387 167.367 146.668 C 168.695 146.14 174.289 144.474 177.437 143.864 C 175.324 148.007 171.25 156.379 167.872 165.649 C 164.408 175.152 156.388 191.487 152.21 199.813 C 153.21 192.152 154.188 185.271 154.482 183.61 C 155.173 179.685 160.921 150.11 161.461 148.852 Z  M 114.022 152.151 L 134.769 138.676 C 135.511 139.9 136.384 141.207 137.38 142.465 C 137.816 143.018 138.201 143.502 138.537 143.928 L 114.022 152.151 Z  M 109.383 136.075 L 117.003 126.094 L 126.249 120.498 C 127.74 122.938 128.662 125.581 127.988 127.851 C 127.782 128.545 127.532 129.16 127.272 129.721 C 121.962 131.722 114.819 134.234 109.383 136.075 Z  M 101.644 138.559 C 99.878 138.96 96.537 141.463 93.477 143.377 C 92.956 141.099 91.791 134.369 94.187 127.431 C 94.762 126.496 95.44 125.453 96.177 124.355 L 98.191 123.704 C 97.278 123.998 96.595 124.219 96.177 124.355 C 99.749 119.029 104.728 112.376 106.371 110.198 C 109.276 110.682 112.44 111.135 114.083 111.124 C 114.357 111.122 114.755 111.148 115.236 111.191 L 115.488 111.517 C 115.488 111.517 120.966 114.083 123.687 117.058 L 114.515 118.433 L 98.191 123.704 C 102.629 122.276 111.68 119.39 113.357 119.053 C 115.597 118.6 124.358 117.939 124.358 117.939 L 124.387 117.877 C 124.923 118.542 125.44 119.246 125.914 119.973 L 114.289 127.341 C 114.289 127.341 110.304 133.116 107.809 136.605 C 104.669 137.657 102.325 138.404 101.644 138.559 Z  M 84.74 144.415 C 85.657 141.326 89.035 135.779 92.474 130.208 C 90.62 136.724 89.572 142.959 89.185 145.509 C 88.137 145.793 86.165 146.421 83.818 147.195 C 84.072 146.521 84.379 145.632 84.74 144.415 Z  M 102.2 109.457 C 102.579 109.528 102.989 109.605 103.437 109.686 C 102.478 111.689 100.275 116.195 98.435 119.213 C 97.82 120.22 96.86 121.71 95.694 123.457 C 97.884 118.061 100.695 112.397 102.2 109.457 Z  M 99.642 102.519 C 99.642 102.519 89.69 100.147 82.747 98.808 C 84.732 97.523 89.117 95.077 94.676 94.225 C 87.752 94.782 82.552 98.678 82.552 98.678 L 82.466 98.754 L 82.509 98.708 C 82.509 98.708 82.169 93.801 83.783 90.784 C 85.322 87.906 87.938 85.296 87.98 85.255 C 88.459 85.484 88.811 85.655 88.945 85.732 C 89.888 86.267 94.465 86.537 96.305 87.72 C 98.145 88.901 102.31 92.254 102.703 92.554 C 103.097 92.853 111.29 95.329 111.95 96.525 C 112.107 96.811 112.668 97.631 113.428 98.705 C 110.628 96.816 106.682 94.827 101.794 94.14 C 99.286 93.787 96.894 93.885 94.676 94.225 C 97.134 94.026 99.803 94.24 102.542 95.21 C 112.071 98.586 116.532 103.049 116.677 103.196 C 118.625 105.84 120.476 108.27 120.686 108.361 C 120.926 108.464 122.087 109.657 123.142 110.766 C 114.855 109.484 106.841 108.162 104.7 107.531 C 99.85 106.104 99.642 102.519 99.642 102.519 Z  M 129.219 86.388 L 128.387 85.157 C 129.803 87.07 131.24 89.001 132.462 90.657 C 129.545 89.901 120.036 87.513 115.102 87.296 C 113.509 87.225 111.469 87.2 109.344 87.197 C 106.96 87.194 104.475 87.22 102.382 87.255 C 103.546 86.998 104.955 86.724 106.708 86.454 C 112.665 85.536 129.219 86.388 129.219 86.388 Z  M 106.561 58.067 C 104.648 55.059 99.678 50.011 98.677 48.272 C 97.677 46.529 94.747 40.463 94.747 40.463 C 94.747 40.463 94.122 39.621 93.192 38.354 L 93.536 38.552 L 168.511 44.23 C 168.555 44.638 168.63 45.339 168.711 46.252 C 160.041 51.401 132.378 67.854 129.203 69.216 C 126.115 70.541 124.072 72.002 123.21 72.68 C 120.159 70.129 108.318 60.827 106.561 58.067 Z  M 135.446 111.786 C 135.73 111.103 136.081 110.17 136.278 109.291 C 136.575 107.966 136.839 103.469 136.929 101.796 C 137.869 101.369 138.937 100.929 139.461 100.715 C 140.782 102.648 141.907 104.366 141.886 104.704 C 141.831 105.578 139.17 107.825 137.611 109.633 C 136.805 110.568 136.02 111.295 135.446 111.786 Z  M 134.502 126.669 C 134.284 126.829 133.814 127.069 133.154 127.367 C 133.207 125.404 133.159 121.815 132.227 120.024 C 130.906 117.482 129.188 115.867 129.771 115.021 C 130.056 114.607 130.653 114.102 131.189 113.693 C 135.992 114.568 139.954 115.372 140.152 115.548 C 140.627 115.969 136.745 125.009 134.502 126.669 Z  M 108.63 88.639 C 106.545 88.325 104.567 88.079 102.854 87.887 C 104.746 87.775 107.043 87.657 109.138 87.607 L 108.63 88.639 Z  M 135.566 94.996 C 135.727 95.262 135.964 95.624 136.246 96.045 C 133.193 94.996 123.708 91.809 116.284 90.072 C 113.911 89.517 111.373 89.061 108.947 88.691 L 109.371 87.603 C 110.772 87.573 112.07 87.573 113.059 87.631 C 119.684 88.012 133.098 91.591 133.098 91.591 L 133.115 91.546 C 134.341 93.215 135.262 94.495 135.566 94.996 Z  M 134.476 108.517 C 133.791 109.804 133.234 110.906 132.847 111.688 C 132.634 111.592 132.41 111.491 132.174 111.389 C 132.126 110.528 132.077 109.225 132.416 108.081 C 133.04 105.982 134.67 103.096 135.47 102.541 C 135.621 102.436 135.886 102.298 136.188 102.147 C 136.086 103.482 135.73 106.159 134.476 108.517 Z  M 168.782 47.089 C 166.415 50.339 159.869 59.489 156.383 65.985 C 148.827 80.074 144.269 97.398 143.082 102.236 C 142.634 102.122 142.254 101.892 142.03 101.733 C 137.891 95.473 130.972 84.994 130.372 84.026 C 129.764 83.043 127.464 78.715 125.652 75.785 C 126.436 74.243 128.056 71.713 130.799 70.209 C 133.346 68.813 160.704 51.612 168.737 46.558 C 168.752 46.732 168.767 46.904 168.782 47.089 Z  M 114.151 97.47 C 113.68 96.746 114.389 95.096 112.927 94.859 C 111.464 94.621 103.711 91.422 101.746 89.926 C 101.427 89.683 101.037 89.421 100.617 89.153 L 100.675 89.173 C 100.675 89.173 106.907 90.129 110.621 90.989 C 114.335 91.849 122.973 94.599 122.973 94.599 C 122.973 94.599 115.034 91.885 110.227 90.719 C 106.407 89.791 101.794 89.061 100.054 88.801 C 99.705 88.591 99.332 88.378 98.938 88.167 L 99.099 88.236 C 99.099 88.236 103.524 88.448 108.762 89.149 C 111.028 89.451 113.451 89.846 115.73 90.354 C 123.906 92.177 136.454 96.982 136.907 97.155 C 136.623 97.974 135.675 100.632 134.956 101.646 C 134.101 102.852 132.026 105.331 131.089 107.51 C 130.583 108.689 130.17 109.729 129.891 110.446 C 129.235 110.196 128.59 109.973 128.016 109.814 C 125.452 109.104 114.623 98.193 114.151 97.47 Z  M 125.804 113.537 L 125.859 113.308 C 126.583 113.848 127.533 114.64 127.892 115.31 C 128.5 116.449 130.509 118.408 131.459 120.789 C 132.126 122.462 132.661 125.689 132.921 127.47 C 132.785 127.53 132.654 127.588 132.505 127.652 C 131.72 125.27 130.471 122.051 129 120.391 C 126.488 117.559 125.406 114.463 125.804 113.537 Z  M 168.278 60.202 C 166.645 63.571 162.04 73.435 161.681 75.131 C 161.323 76.827 153.737 100.951 153.043 102.134 C 152.399 103.233 145.527 102.457 143.831 102.324 L 143.966 102.17 C 143.966 102.17 148.326 84.326 156.355 68.088 C 161.161 58.372 168.824 47.842 168.824 47.842 L 168.839 47.809 C 169.142 51.896 169.367 57.954 168.278 60.202 Z  M 171.317 59.077 L 191.507 57.146 L 191.58 57.11 C 191.511 57.275 191.452 57.425 191.407 57.552 L 165.487 75.289 C 165.433 74.725 165.389 74.368 165.365 74.307 C 165.201 73.896 170.423 62.406 171.317 59.077 Z  M 172.006 94.761 C 171.961 95.296 169.907 102.383 169.907 102.383 L 167.804 101.097 C 167.804 101.097 166.241 95.961 166.467 93.282 C 166.637 91.254 166.018 81.663 165.631 76.94 L 190.596 59.361 C 187.371 66.23 173.961 94.786 173.607 95.61 C 173.205 96.547 172.051 94.225 172.006 94.761 Z  M 192.923 58.391 C 193.461 56.815 197.058 54.676 198.901 53.51 C 198.326 54.674 186.012 79.687 185.182 85.411 C 184.333 91.271 180.702 103.608 180.433 105.27 C 180.163 106.934 180.095 107.349 179.171 106.397 C 178.437 105.639 174.556 101.846 172.981 100.307 C 175.109 95.872 177.987 90.004 179.529 87.422 C 182.167 83.004 186.594 73.99 187.89 71.401 C 189.188 68.814 192.207 60.489 192.923 58.391 Z  M 193.085 103.752 C 193.96 104.838 196.244 107.679 196.458 108.007 C 196.724 108.414 196.405 109.157 194.015 109.597 C 192.565 109.864 190.702 109.467 189.458 109.113 C 189.332 108.752 189.252 108.528 189.252 108.528 C 189.252 108.528 190.801 106.59 193.085 103.752 Z  M 218.138 70.223 C 219.664 70.729 222.113 72.072 225.319 75.577 C 231.823 82.685 232.396 84.969 234.436 90.012 C 237.662 97.982 237.55 103.776 237.488 104.925 C 235.961 105.291 234.286 105.7 232.423 106.128 C 225.057 107.816 211.251 110.825 205.549 112.206 C 205.08 112.32 204.595 112.445 204.107 112.575 C 203.491 111.583 202.571 110.243 201.679 109.515 C 200.41 108.482 196.87 102.457 195.726 100.479 C 200.926 94.046 207.812 85.607 210.657 82.477 C 214.014 78.784 216.12 74.116 218.138 70.223 Z  M 253.376 104.911 C 255.778 104.329 260.906 103.538 264.659 103.065 C 263.409 106.442 259.194 118.146 257.683 126.249 C 256.103 134.717 250.957 146.3 249.804 148.834 C 245.73 147.007 242.282 145.409 240.95 144.837 C 238 143.569 237.54 145.994 233.465 143.952 C 229.389 141.911 226.016 139.587 220.183 138.248 C 217.799 137.699 215.504 136.605 213.202 135.462 L 213.247 135.364 C 214.083 133.418 215.301 129.119 215.38 123.076 C 215.441 118.563 214.699 114.293 214.317 112.416 C 225.293 109.766 239.284 106.428 241.758 105.796 C 245.488 104.844 249.955 105.74 253.376 104.911 Z  M 202.894 131.696 C 196.743 131.094 196.71 128.458 194.285 127.999 C 194.031 127.951 193.835 127.883 193.65 127.809 C 197.734 125.091 210.808 113.548 210.808 113.548 L 210.815 113.527 C 211.71 114.952 213.025 117.383 213.941 120.571 C 215.376 125.562 213.716 132.045 212.505 135.116 C 209.405 133.572 206.279 132.028 202.894 131.696 Z  M 192.966 118.029 C 195.421 117.25 198.536 116.324 201.849 115.47 C 203.27 115.105 205.889 114.46 209.128 113.673 L 192.743 126.748 C 192.605 125.918 192.983 124.728 193.164 123.147 C 193.384 121.242 193.141 119.164 192.966 118.029 Z  M 192.328 116.234 C 191.846 115.663 190.495 112.009 189.756 109.944 C 191.249 110.465 195.518 111.124 197.163 111.83 C 198.151 112.254 199.092 113.087 199.746 113.818 C 195.763 115.026 192.328 116.234 192.328 116.234 Z  M 194.444 138.824 C 194.89 142.902 194.678 145.536 194.678 145.536 L 194.686 145.564 C 191.351 144.808 188.349 144.11 186.072 143.576 L 186.027 140.906 C 188.927 138.628 191.48 135.208 192.983 132.965 C 193.528 134.421 194.195 136.544 194.444 138.824 Z  M 185.643 141.21 L 185.798 143.428 L 185.831 143.518 C 184.987 143.319 184.244 143.144 183.637 143 L 183.614 142.964 C 183.524 142.832 183.459 142.723 183.375 142.595 C 183.727 142.431 184.126 142.214 184.578 141.935 C 184.938 141.716 185.292 141.47 185.643 141.21 Z  M 152.01 201.358 C 152.063 200.952 152.115 200.547 152.167 200.145 C 156.384 192.178 164.614 176.414 168.22 168.02 C 172.855 157.227 178.34 145.153 179.027 143.643 C 179.289 143.634 179.486 143.65 179.567 143.71 C 180.316 144.281 182.02 148.988 182.02 148.988 L 183.654 149.838 L 183.654 149.889 L 183.561 149.911 C 183.561 149.911 175.462 161.153 170.606 169.574 C 166.722 176.309 156.531 194.112 152.605 200.975 C 152.394 201.112 152.202 201.236 152.01 201.358 Z  M 152.676 200.929 C 156.837 193.859 167.675 175.441 171.047 169.813 C 174.324 164.343 180.901 155.115 183.643 151.309 C 183.629 153.409 183.589 156.05 183.253 158.648 L 183.001 158.848 C 177.334 163.369 171.182 173.644 166.23 183.44 C 163.132 189.566 159.497 194.683 157.17 197.885 C 155.565 199.03 153.96 200.1 152.676 200.929 Z  M 204.591 148.687 C 204.31 150.235 203.6 153.399 202.011 156.837 C 200.296 160.546 198.805 162.655 198.199 163.442 C 197.097 162.039 196.309 160.989 195.977 160.446 C 193.623 156.609 186.945 147.8 184.061 143.621 C 184.363 143.704 185.048 143.893 186.061 144.164 L 186.082 144.225 L 186.082 144.17 C 188.05 144.698 191.203 145.525 194.935 146.443 L 194.956 146.517 L 194.96 146.45 C 197.905 147.175 201.209 147.953 204.591 148.687 Z  M 262.471 238.201 C 262.471 238.201 255.327 230.112 254.729 229.208 C 253.542 227.418 248.115 221.85 246.496 220.411 C 245.765 219.759 243.837 216.091 240.83 212.748 C 238.644 210.32 230.858 203.001 228.314 199.672 C 226.142 196.833 205.958 173.245 198.531 163.863 L 198.594 163.867 C 198.594 163.867 201.163 161.398 203.506 155.575 C 205.46 150.719 205.471 149.229 205.421 148.867 C 210.604 149.977 215.902 150.96 220.28 151.454 C 231.93 152.767 245.573 152.027 249.403 151.775 C 246.047 151.986 234.806 152.486 221.018 150.812 C 217.375 150.37 211.201 149.159 204.814 147.797 L 204.748 147.69 L 204.737 147.78 C 201.439 147.077 198.093 146.335 195.005 145.635 C 195.071 144.13 195.119 140.961 194.565 138.317 C 194.085 136.022 193.488 133.967 193.115 132.769 C 193.304 132.486 193.476 132.222 193.625 131.987 C 195.804 132.384 198.03 132.898 199.764 133.556 C 210.325 137.561 236.308 147.505 237.996 147.646 C 239.683 147.789 237.295 145.889 241.827 147.543 C 246.359 149.199 260.871 155.432 266.6 157.018 C 268.214 157.465 269.948 157.967 271.686 158.5 C 266.973 156.637 262.319 154.628 257.786 152.805 C 257.131 152.542 256.668 152.152 256.342 151.705 C 255.169 151.204 253.988 150.69 252.827 150.178 C 253.726 148.063 257.329 139.06 258.615 127.681 C 259.907 116.253 264.753 105.419 265.935 102.911 C 266.961 102.792 267.822 102.707 268.383 102.674 C 271.002 102.523 273.099 100.613 278.337 100.309 C 283.576 100.005 300 98.632 300 98.632 C 300 98.632 284.779 98.99 280.588 99.232 C 276.397 99.476 270.079 101.104 265.487 101.685 C 260.896 102.268 252.052 103.833 248.14 103.428 C 246.333 103.242 244.402 103.453 242.137 103.89 C 241.598 102.25 238.149 91.938 233.942 83.846 C 229.747 75.777 221.324 68.271 219.922 67.051 C 220.231 66.563 220.541 66.084 220.865 65.66 C 224.645 60.7 235.118 49.311 238.323 46.602 C 241.531 43.893 251.767 35.34 251.952 35.09 C 253.86 32.51 259.956 25.809 264.371 21.029 C 259.963 25.743 253.816 32.246 251.491 34.381 C 247.698 37.86 235.773 47.627 234.871 48.694 C 229.983 54.482 221.367 62.6 219.979 64.047 C 218.777 65.299 193.62 97.565 186.889 106.203 C 186.853 105.959 186.782 105.69 186.616 105.369 C 185.584 103.37 185.819 94.022 186.347 88.913 C 186.793 84.591 196.461 60.5 199.435 53.163 C 199.741 52.959 199.948 52.805 199.982 52.727 C 200.182 52.258 209.73 33.046 215.428 24.947 C 221.127 16.85 223.589 0 223.589 0 C 223.589 0 221.161 12.427 216.958 17.948 C 213.674 28.606 198.911 51.342 198.911 51.342 C 198.911 51.342 192.97 55.266 192.389 55.757 C 192.162 55.951 191.944 56.32 191.762 56.697 L 171.396 58.757 C 171.423 58.627 171.444 58.508 171.449 58.419 C 171.562 56.432 171.792 48.576 171.457 48.062 C 171.123 47.549 175.171 37.26 175.486 33.51 C 175.802 29.761 178.982 17.619 180.525 14.026 C 182.068 10.434 183.86 1.952 183.86 1.952 C 183.86 1.952 180.772 11.727 179.497 14.696 C 178.223 17.663 174.709 29.29 173.814 32.235 C 173.073 34.67 169.916 40.975 168.837 43.097 L 92.562 37.492 C 90.442 34.591 87.339 30.29 85.896 28.025 C 85.663 27.659 85.472 27.345 85.337 27.099 C 83.863 24.427 81.07 21.771 81.07 21.771 C 81.07 21.771 83.985 25.499 85.845 28.63 C 87.706 31.759 93.481 40.358 93.481 40.358 C 93.481 40.358 96.763 47.303 97.798 48.623 C 98.834 49.941 109 63.921 111.458 65.998 C 113.917 68.072 120.538 73.684 122.136 76.409 C 122.57 77.152 123.677 78.724 125.079 80.654 C 124.2 81.349 119.822 84.513 112.162 85.089 C 108.007 85.4 96.874 86.552 95.747 86.67 C 94.455 86.144 93.086 85.679 91.714 85.356 C 87.687 84.41 77.467 79.367 77.467 79.367 L 76.65 78.234 C 76.65 78.234 61.91 70.656 57.114 68.165 C 61.728 70.641 75.407 78.091 75.407 78.091 L 76.978 80.2 C 76.978 80.2 84.533 83.624 87.663 85.104 C 86.815 85.956 84.577 88.41 83.192 91.86 C 82.021 94.776 81.692 97.263 81.597 98.591 C 79.366 98.18 77.564 97.907 76.71 97.912 C 73.203 97.937 55.805 95.709 48.556 94.78 C 41.307 93.85 33.952 92.66 33.952 92.66 C 33.952 92.66 71.489 99.385 75.39 99.968 C 79.291 100.551 89.967 103.169 94.394 105.071 C 97.159 106.258 98.7 107.517 99.467 108.295 C 98.477 111.442 96.037 119.154 93.593 126.559 C 90.351 131.278 86.36 136.786 83.503 140.059 C 80.34 143.682 77.34 147.687 75.708 149.929 C 72.31 151.092 69.31 152.134 68.099 152.557 C 65.013 153.635 52.197 157.528 48.663 160.162 C 45.128 162.795 40.274 166.548 35.544 169.43 C 29.755 172.958 14.923 179.237 13.367 180.318 C 12.422 180.972 7.701 183.658 4.134 185.669 C 8.421 183.29 15.135 179.643 19.807 177.486 C 27.166 174.091 38.981 168.459 43.252 167.671 C 47.524 166.884 54.065 163.356 58.206 160.327 C 62.348 157.298 74.242 151.482 79.648 150.089 C 85.053 148.695 94.467 146.62 99.451 144.173 C 104.436 141.725 106.677 141.595 108.153 142.229 C 109.629 142.863 122.234 138.443 126.717 136.655 C 128.521 135.934 130.554 135 132.347 134.137 C 132.629 134.749 133.067 135.65 133.639 136.707 L 128.974 137.745 L 106.559 154.656 L 105.918 154.871 L 106.198 154.929 L 84.229 171.505 L 109.519 155.077 L 139.542 145.219 C 140.885 146.989 140.856 147.265 140.48 148.158 C 139.939 149.442 140.893 152.669 140.514 153.185 C 139.714 154.276 136.234 162.581 134.724 164.64 C 133.216 166.697 121.926 184.746 121.02 186.854 C 120.114 188.963 117.368 199.235 114.348 207.719 C 112.484 212.958 105.139 229.16 105.139 229.16 C 105.139 229.16 108.728 222.146 112.476 214.389 C 116.224 206.63 121.969 192.883 122.926 190.171 C 123.882 187.461 126.044 184.849 130.848 176.088 C 135.652 167.327 143.927 151.938 143.927 151.938 L 145.636 150.383 L 157.442 150.86 C 156.377 158.69 154.177 174.673 153.104 181.032 C 151.66 189.602 148.324 200.838 147.748 210.279 C 147.17 219.718 147.731 231.137 147.217 236.381 C 146.704 241.625 145.945 253.222 145.945 253.222 C 145.945 253.222 150.1 227.932 149.684 224.275 C 149.627 223.772 149.665 222.697 149.772 221.234 C 152.077 216.081 159.571 199.586 162.472 196.233 C 165.922 192.251 178.065 186.536 181.663 183.362 C 185.263 180.189 189.044 174.857 189.522 174.319 C 189.926 173.866 196.565 169.459 198.691 168.051 L 210.164 184.673 C 210.164 184.673 218.46 190.223 222.323 195.112 C 226.185 200 231.635 205.819 234.779 208.907 C 237.923 211.996 244.959 220.485 246.606 222.434 C 248.254 224.383 251.967 226.724 256.129 231.492 C 260.291 236.26 271.4 249.724 271.4 249.724 L 262.471 238.201 Z " fill="rgb(116,116,116)"/></g></svg>